<?xml version="1.0" encoding="UTF-8"?>
<svg id="Layer_1" data-name="Layer 1" xmlns="http://www.w3.org/2000/svg" viewBox="0 0 500 300">
  <defs>
    <style>
      .cls-1 {
        stroke: #36f;
        stroke-width: 4.2px;
      }

      .cls-1, .cls-2 {
        fill: none;
        stroke-miterlimit: 10;
      }

      .cls-2 {
        stroke: #fd9200;
        stroke-width: 2.8px;
      }

      .cls-3 {
        fill: #36f;
      }

      .cls-4 {
        fill: #fd9200;
      }
    </style>
  </defs>
  <path class="cls-3" d="M333.88,168.25c-1.31,0-2.39-.78-2.94-2.1-.22-4.73-.16-9.58-.1-14.27.11-8.95.23-18.2-1.59-27.25-7.31-36.27-38.55-61.61-75.97-61.61-19,0-36.64,6.74-51.02,19.51-1.2,1.07-3.46,3.66-5.85,6.4-1.88,2.16-4.44,5.09-5.19,5.7-.56.23-1.11.34-1.64.34-1.03,0-1.89-.44-2.43-1.25-.65-.96-.72-2.28-.18-3.61.71-1.77,8.1-9.53,11.03-12.13,15.29-13.6,34.99-21.08,55.46-21.08,23.76,0,46.53,10.1,62.46,27.7,11.68,12.91,19.92,32.39,20.99,49.63.52,8.38.86,23.55,0,31-.26,2.23-1.79,3.02-3.02,3.02Z"/>
  <path class="cls-3" d="M211.72,226.58c-.62,0-1.48-.16-2.02-.9-.6-.81-.67-2.1-.19-3.63.21-.68,1.68-2.03,2.66-2.92.9-.82,1.74-1.6,2.35-2.38,9.61-12.33,15.19-26.55,16.12-41.13.27-4.24.09-9.14-.1-14.33-.71-19.33-1.51-41.25,19.51-44.13,1.15-.16,2.3-.24,3.44-.24,11.86,0,21.41,8.42,23.26,20.49l-.27,39.24c-.57,1.14-1.79,1.56-2.78,1.56-1.1,0-2.5-.51-2.88-1.95-.53-5.79-.28-12.1-.03-18.21.26-6.38.52-12.99-.1-19.1-1.09-10.78-9.59-15.69-17.02-15.69s-15.67,4.72-16.91,15.09c-.8,6.66-.49,14.1-.2,21.29.24,5.92.49,12.04.11,17.57-1,14.53-7.4,30.5-17.12,42.73-1.61,2.02-4.68,5.52-5.43,6.02-.79.4-1.64.63-2.4.63Z"/>
  <path class="cls-3" d="M179.89,201.37c-.35,0-1.29,0-2.2-2.13-.81-1.87,1.9-4.66,4.29-7.13,1.36-1.4,2.64-2.72,3.49-4.06,6.13-9.6,5.59-24.38,5.12-37.42-.21-5.71-.4-11.11-.06-15.74,2.2-29.76,27.21-55.15,56.94-57.8,1.69-.15,3.48-.23,5.31-.23,7.7,0,15.89,1.34,22.48,3.68l.16.05c2.33.83,6.68,2.37,7.6,4.55.16.39.33,1.03-.16,2.09-.64,1.41-1.44,1.7-2.43,1.7-1.73,0-4.06-1.03-6.12-1.95-1.24-.55-2.42-1.08-3.5-1.4-5.64-1.7-11.42-2.56-17.17-2.56-30.57,0-55.11,23.24-57.09,54.06-.36,5.61-.14,11.4.07,16.99.56,15.12,1.1,29.41-8.66,41.08-3.24,3.88-6.26,6.19-8.08,6.19Z"/>
  <path class="cls-3" d="M213.73,158.2c-1.37,0-2.93-.79-3.19-3-1.91-16.4-.13-38.62,19.23-51.3,7.21-4.72,15.3-7.22,23.38-7.22,9.81,0,19.39,3.55,27.69,10.26,5.67,4.59,8.89,7.87,11.88,14.14,2.79,5.85,4.85,13.5,3.19,16.12-.28.45-.8.97-2.27.97-.34,0-.71-.03-1.11-.09-2-.29-2.57-2.55-3.26-6.25-.23-1.24-.48-2.53-.85-3.64-5-15.01-18.04-24.33-34.03-24.33-17.56,0-36.18,12.27-37.78,35.73-.13,1.88-.02,4.3.1,6.86.17,3.72.37,7.93-.27,9.96-.41,1.31-1.71,1.78-2.7,1.78Z"/>
  <path class="cls-3" d="M308.18,213.99c-.73,0-1.72-.25-2.27-1.46-.57-1.64,1.32-10.48,2.23-14.72.58-2.73,1.09-5.09,1.28-6.52,1.99-15.14,3.44-50.23-.76-66.26-1.6-6.08-4.2-11.78-7.73-16.96-.67-.98-1.97-2.49-3.48-4.24-1.66-1.93-4.44-5.15-4.78-6.05-.13-.64.13-1.62.7-2.47.51-.76,1.22-1.31,1.84-1.42h0c3.15,0,10.41,9.2,13.83,15.4,4.07,7.38,7.2,17.67,7.78,25.61,1.42,19.25,1.02,61.17-4.85,76.19-.78,2-2.47,2.9-3.8,2.9Z"/>
  <path class="cls-3" d="M273.13,245.95c-1.08,0-1.94-.35-2.49-1.01-.64-.77-.84-1.95-.58-3.32.23-1.02,2.88-5.51,4.63-8.48,1.72-2.92,3.34-5.67,4.07-7.27,6.92-15.2,11.18-33.28,11.99-50.92.12-2.67-.01-5.74-.14-8.7-.18-4.17-.37-8.48.13-11.74.18-1.15,1.03-2.14,2.01-2.35.38-.08.74-.12,1.08-.12,2.17,0,2.81,1.62,2.97,2.98,2.85,24.26-3.37,56.9-15.13,79.36-5.47,10.44-7.46,11.47-7.54,11.5-.27.04-.65.08-1.01.08Z"/>
  <path class="cls-3" d="M239.46,224.04c-1.05,0-1.99-.37-2.58-1.03-.51-.57-.73-1.31-.63-2.19.16-1.08,2.66-5.75,4.32-8.84,1.7-3.17,3.31-6.16,4-7.95,3.32-8.64,5.6-19.03,6.11-27.8.28-4.88.02-10.59-.23-16.1-.33-7.31-.68-14.88.22-20.65.18-1.15,1.02-2.14,2.01-2.35.33-.07.66-.11.98-.11.61,0,2.58.17,3.01,2.31-.08,4.98-.01,10,.06,14.86.21,14.7.42,28.58-3.26,42.5-1.96,7.4-9.77,26.04-12.7,27.15-.43.13-.87.19-1.31.19Z"/>
  <path class="cls-3" d="M246.4,248.14c-.82,0-1.55-.38-2.05-1.07-.7-.96-.84-2.31-.4-3.71.31-.65,2.69-3.6,4.27-5.54,1.52-1.87,2.95-3.64,3.61-4.64,5.05-7.63,9.04-15.44,11.86-23.21.43-1.19,1.04-3.36,1.75-5.87,1.01-3.58,2.89-10.23,3.71-11.3.29-.24.7-.47,1.06-.56.6-.14,1.14-.21,1.61-.21,1.16,0,1.49.44,1.61.6,1.58,2.11-.38,8.8-1.22,11.66l-.24.84c-2.11,7.34-5.8,15.99-10.13,23.72-3.13,5.61-10.57,16.98-13.6,18.72-.64.37-1.26.56-1.85.56Z"/>
  <path class="cls-3" d="M173.49,168.21c-1.2,0-2.7-.65-2.99-2.48-1.05-6.73-.52-24.51-.01-32.09.38-5.69,4.07-23.52,6.9-26.31.37-.37,1.28-.8,1.79-.84.08,0,.16-.01.23-.01.8,0,1.67.4,2.33,1.06.63.63.99,1.42.98,2.16,0,.99-1.23,4.33-2.04,6.54-.75,2.04-1.45,3.97-1.78,5.32-2.56,10.58-2.48,21.2-2.39,31.47.03,4.31.07,8.77-.09,13.19-.53,1.47-1.84,2-2.93,2Z"/>
  <path class="cls-3" d="M191.08,218.79c-.48,0-1.2-.11-2-1.05-2.18-2.55,1.48-6.27,6.12-10.52,1.4-1.28,2.73-2.5,3.62-3.58,4.7-5.67,8.3-12.72,10.13-19.85.28-1.09.45-2.4.62-3.78.42-3.27.93-7.35,3.03-7.81.49-.11.95-.16,1.35-.16,1.15,0,1.6.44,1.88.88,2.42,3.71-1.37,16.09-3.93,21.9-2.17,4.92-5.74,10.41-9.79,15.06l-.59.68c-2.31,2.67-7.1,8.24-10.43,8.24Z"/>
  <path class="cls-3" d="M225.93,240.88c-.84,0-1.6-.37-2.14-1.04-.63-.78-.86-1.85-.64-2.95.66-1.28,5.32-6.3,6.64-7.16.33-.09.66-.13.96-.13,1.09,0,1.75.57,2.12,1.04.72.93.93,2.3.57,3.66-.48,1.26-5.04,5.78-6.22,6.31-.44.18-.87.27-1.29.27Z"/>
  <path class="cls-3" d="M303.64,219.73c8.52-1.1,6.64,14.89-2,13.64-6.81-.99-3.29-12.96,2-13.64Z"/>
  <circle class="cls-2" cx="101.13" cy="144.99" r="46.38"/>
  <path class="cls-4" d="M95.22,169.25c-.71,0-1.41-.11-2.08-.31-1.18-.35-2.24-.98-3.09-1.83l-.32-.32c-.23-.23-.43-.47-.62-.72l-.08-.1-13.38-13.38c-1.32-1.32-2.04-3.07-2.04-4.93s.73-3.61,2.04-4.93l.71-.71c1.32-1.32,3.07-2.04,4.93-2.04s3.61.73,4.93,2.04l9.02,9.02,24.28-24.28c1.37-1.37,3.19-2.12,5.13-2.12s3.76.75,5.13,2.12l.32.32c2.83,2.83,2.83,7.43,0,10.25l-29.79,29.79c-.35.35-.75.68-1.19.96-1.17.78-2.51,1.19-3.89,1.19h0Z"/>
  <path class="cls-4" d="M379.75,146.05c3.22-9.04,12.14-15.52,21.88-15.31v23.2s.04.02.04.02l12.18-19.8c6.97,4.25,11.03,11.94,11.03,19.82h0c.04,10.28-6.99,19.49-16.77,22.26-.17.05-.34.1-.5.14-.03,0-.06.02-.08.02-7.7,2.03-16.41.12-22.76-6.47-2.33-2.41-4.04-5.31-5.11-8.41-.02-.07-.04-.13-.07-.2-.05-.16-.11-.33-.16-.49-.17-.54-.32-1.09-.44-1.64-.01-.05-.02-.1-.03-.15-.05-.23-.1-.47-.15-.71-.01-.07-.03-.15-.04-.22-.04-.2-.07-.4-.1-.6-.02-.11-.03-.21-.05-.32,0-.05-.01-.09-.02-.14-.5-3.69-.14-7.49,1.16-11.02Z"/>
  <path class="cls-1" d="M127.9,80.43v-44.65c0-6.04,4.9-10.94,10.94-10.94h47.77"/>
  <path class="cls-1" d="M323.87,23.28h44.65c6.04,0,10.94,4.9,10.94,10.94v47.77"/>
  <path class="cls-1" d="M379.46,219.57v44.65c0,6.04-4.9,10.94-10.94,10.94h-47.77"/>
  <path class="cls-1" d="M183.49,276.72h-44.65c-6.04,0-10.94-4.9-10.94-10.94v-47.77"/>
  <path class="cls-3" d="M401.74,197.63c-14.26,0-27.64-6.91-35.81-18.49-12-17.02-10.34-40.2,3.96-55.12l1.35-1.41-4.94-4.92,3.6-3.55,5.33,4.94,1.31-.89c6.49-4.43,13.55-7.06,20.41-7.62l.61-.05,1.56-1.27v-6.95h-9.2v-5.23h23.42v5.23h-9.2v6.95l1.56,1.27.62.05c6.82.55,13.89,3.17,20.45,7.59l1.3.88,5.25-4.87,3.45,3.54-4.72,4.93,1.3,1.37c8.69,9.14,12.94,21.62,11.68,34.26-1.27,12.72-7.97,24.2-18.38,31.49-7.33,5.14-15.95,7.86-24.91,7.86h0ZM401.73,115.39c-.95,0-1.91.03-2.86.1-12.47.88-23.77,7.85-30.24,18.65-6.57,10.96-7.35,23.9-2.16,35.5,6.27,14.02,19.77,22.73,35.24,22.73,12.38,0,23.68-5.74,31.01-15.74,8.7-11.88,9.91-26.83,3.24-40.01-6.64-13.1-19.75-21.24-34.22-21.24Z"/>
</svg>