<?xml version="1.0" encoding="UTF-8"?>
<svg id="Layer_1" data-name="Layer 1" xmlns="http://www.w3.org/2000/svg" viewBox="0 0 125 125">
  <defs>
    <style>
      .cls-1 {
        fill: #fd9200;
      }
    </style>
  </defs>
  <path class="cls-1" d="M91.73,7.65c14.13,0,25.63,11.5,25.63,25.63v58.45c0,14.13-11.5,25.63-25.63,25.63h-58.45c-14.13,0-25.63-11.5-25.63-25.63v-58.45c0-14.13,11.5-25.63,25.63-25.63h58.45M91.73,5.45h-58.45c-15.37,0-27.83,12.46-27.83,27.83v58.45c0,15.37,12.46,27.83,27.83,27.83h58.45c15.37,0,27.83-12.46,27.83-27.83v-58.45c0-15.37-12.46-27.83-27.83-27.83h0Z"/>
  <g>
    <path class="cls-1" d="M91.02,52.16v13.09h-18.91v4.74c6.45.06,13.88.42,19.98,2.56,19.36,6.79-12.26,12.12-19.98,11.98v5.35h-14.06v-5.35c-5.1.27-24.06-1.78-26.61-6.13-1.76-3.01,4.06-5.03,6.25-5.75,6.48-2.13,12.91-2.58,20.36-2.85v-4.55h-18.91v-13.09h51.87ZM58.06,70.96c-5.99.03-12.57.55-18.3,2.3-7.54,2.3-7,4.71.26,6.77,11.73,3.33,30.36,3.22,42.45,1.52,7.18-1.01,22.46-4.7,6.04-8.81-5.25-1.31-11-1.8-16.4-1.78v9.21h-14.06v-9.21Z"/>
    <rect class="cls-1" x="49.42" y="35.12" width="13.12" height="13.12"/>
    <rect class="cls-1" x="66.86" y="35.12" width="13.12" height="13.12"/>
  </g>
</svg>