<?xml version="1.0" encoding="UTF-8"?>
<svg id="Layer_1" data-name="Layer 1" xmlns="http://www.w3.org/2000/svg" viewBox="0 0 125 125">
  <defs>
    <style>
      .cls-1 {
        fill: #36f;
      }
    </style>
  </defs>
  <path class="cls-1" d="M91.73,7.65c14.13,0,25.63,11.5,25.63,25.63v58.45c0,14.13-11.5,25.63-25.63,25.63h-58.45c-14.13,0-25.63-11.5-25.63-25.63v-58.45c0-14.13,11.5-25.63,25.63-25.63h58.45M91.73,5.45h-58.45c-15.37,0-27.83,12.46-27.83,27.83v58.45c0,15.37,12.46,27.83,27.83,27.83h58.45c15.37,0,27.83-12.46,27.83-27.83v-58.45c0-15.37-12.46-27.83-27.83-27.83h0Z"/>
  <g>
    <path class="cls-1" d="M89.24,86.81h-43.76c-4.03,0-7.29-3.27-7.29-7.29v-43.76c0-1.34-1.09-2.43-2.43-2.43s-2.43,1.09-2.43,2.43v43.76c0,6.71,5.45,12.15,12.16,12.16h43.76c1.34,0,2.43-1.09,2.43-2.43s-1.09-2.43-2.43-2.43Z"/>
    <path class="cls-1" d="M47.91,81.95c1.34,0,2.43-1.09,2.43-2.43v-17.02c0-1.34-1.09-2.43-2.43-2.43s-2.43,1.09-2.43,2.43v17.02c0,1.34,1.09,2.43,2.43,2.43Z"/>
    <path class="cls-1" d="M57.64,57.64v21.88c0,1.34,1.09,2.43,2.43,2.43s2.43-1.09,2.43-2.43v-21.88c0-1.34-1.09-2.43-2.43-2.43s-2.43,1.09-2.43,2.43Z"/>
    <path class="cls-1" d="M69.79,64.93v14.59c0,1.34,1.09,2.43,2.43,2.43s2.43-1.09,2.43-2.43v-14.59c0-1.34-1.09-2.43-2.43-2.43s-2.43,1.09-2.43,2.43Z"/>
    <path class="cls-1" d="M81.95,55.21v24.31c0,1.34,1.09,2.43,2.43,2.43s2.43-1.09,2.43-2.43v-24.31c0-1.34-1.09-2.43-2.43-2.43s-2.43,1.09-2.43,2.43Z"/>
    <path class="cls-1" d="M47.91,55.21c.64,0,1.26-.26,1.72-.71l8.72-8.72c.96-.92,2.48-.92,3.44,0l5.28,5.28c2.85,2.85,7.46,2.85,10.31,0l13.58-13.58c.93-.97.91-2.5-.06-3.44-.94-.91-2.44-.91-3.38,0l-13.58,13.58c-.95.95-2.49.95-3.44,0l-5.28-5.28c-2.85-2.85-7.46-2.85-10.31,0l-8.72,8.72c-.95.95-.95,2.49,0,3.44.46.46,1.07.71,1.72.71Z"/>
  </g>
</svg>