<?xml version="1.0" encoding="UTF-8"?>
<svg id="Layer_1" data-name="Layer 1" xmlns="http://www.w3.org/2000/svg" viewBox="0 0 125 125">
  <defs>
    <style>
      .cls-1 {
        fill: #fd9200;
      }
    </style>
  </defs>
  <path class="cls-1" d="M91.73,7.65c14.13,0,25.63,11.5,25.63,25.63v58.45c0,14.13-11.5,25.63-25.63,25.63h-58.45c-14.13,0-25.63-11.5-25.63-25.63v-58.45c0-14.13,11.5-25.63,25.63-25.63h58.45M91.73,5.45h-58.45c-15.37,0-27.83,12.46-27.83,27.83v58.45c0,15.37,12.46,27.83,27.83,27.83h58.45c15.37,0,27.83-12.46,27.83-27.83v-58.45c0-15.37-12.46-27.83-27.83-27.83h0Z"/>
  <path class="cls-1" d="M95.25,44.09v26.13c-1.24-.36-2.51-.58-3.85-.62v-25.52c0-1.71-.69-3.27-1.85-4.4h0c-1.13-1.13-2.69-1.82-4.4-1.82h-46.71c-1.71,0-3.27.69-4.4,1.85-1.13,1.13-1.85,2.69-1.85,4.4v34.28c0,1.71.69,3.27,1.85,4.4,1.13,1.13,2.69,1.85,4.4,1.85h38.75c.11,1.34.4,2.62.84,3.85h-39.58c-2.76,0-5.31-1.13-7.12-2.94s-2.94-4.36-2.94-7.12v-34.35c0-2.76,1.13-5.31,2.94-7.12,1.82-1.82,4.36-2.94,7.12-2.94h46.71c2.76,0,5.27,1.13,7.12,2.98h0c1.85,1.78,2.98,4.29,2.98,7.09ZM70.86,47.54c-1.05,0-1.93-.87-1.93-1.93s.87-1.93,1.93-1.93h12.69c1.05,0,1.93.87,1.93,1.93s-.87,1.93-1.93,1.93h-12.69ZM70.86,66.37c-1.05,0-1.93-.87-1.93-1.93s.87-1.93,1.93-1.93h7.09c1.05,0,1.93.87,1.93,1.93s-.87,1.93-1.93,1.93h-7.09ZM70.86,56.96c-1.05,0-1.93-.87-1.93-1.93s.87-1.93,1.93-1.93h12.69c1.05,0,1.93.87,1.93,1.93s-.87,1.93-1.93,1.93h-12.69ZM90.96,71.46c6.58,0,11.92,5.34,11.92,11.92s-5.34,11.92-11.92,11.92-11.92-5.34-11.92-11.92,5.34-11.92,11.92-11.92h0ZM82.93,84.11l4.94,4.8c.62.62,1.64.62,2.22,0l8.91-8.76c.62-.62.65-1.64,0-2.25-.62-.62-1.64-.65-2.25,0l-7.81,7.67-3.82-3.71c-.62-.62-1.64-.62-2.25.04-.58.62-.58,1.6.07,2.22ZM61.81,74.02c-.15-5.08-3.96-9.75-8.84-11.02l-.18-.03c2.61-1.12,4.44-3.72,4.44-6.74,0-3.57-2.55-6.54-5.92-7.2-.46-.09-.93-.14-1.39-.14-.01,0-.02,0-.03,0,0,0-.02,0-.03,0-.03,0-.06,0-.1,0-4,.07-7.21,3.32-7.21,7.34,0,3.02,1.82,5.61,4.43,6.74-4.24,1.05-7.75,4.56-8.7,8.88-.32,1.47-.86,4.05,1.26,4.26h20.62c1.22-.11,1.69-.94,1.65-2.09Z"/>
</svg>