<?xml version="1.0" encoding="UTF-8"?>
<svg id="Layer_1" data-name="Layer 1" xmlns="http://www.w3.org/2000/svg" viewBox="0 0 125 125">
  <defs>
    <style>
      .cls-1 {
        fill: #36f;
      }
    </style>
  </defs>
  <path class="cls-1" d="M91.73,7.65c14.13,0,25.63,11.5,25.63,25.63v58.45c0,14.13-11.5,25.63-25.63,25.63h-58.45c-14.13,0-25.63-11.5-25.63-25.63v-58.45c0-14.13,11.5-25.63,25.63-25.63h58.45M91.73,5.45h-58.45c-15.37,0-27.83,12.46-27.83,27.83v58.45c0,15.37,12.46,27.83,27.83,27.83h58.45c15.37,0,27.83-12.46,27.83-27.83v-58.45c0-15.37-12.46-27.83-27.83-27.83h0Z"/>
  <g>
    <path class="cls-1" d="M37.16,38.05c1.43.09,2.87-.1,4.29.12,1.73.27,3.51,1.23,4.69,2.54,1.92,2.61,3.41,5.52,5.26,8.18.14.04,1.26-.85,1.5-1,6.44-4.14,14.73-3.8,20.66,1.09.93-1.42,1.85-2.85,2.76-4.29,1.3-2.06,2.11-4.1,4.31-5.43,2.34-1.41,4.61-1.2,7.24-1.2.36-1.45,2.11-3.06,3.6-3.24,3.51-.45,6.22,2.55,5.14,5.98-1.19,3.78-6.38,4.28-8.36.8-.15-.27-.34-.96-.59-1.01-3.08-.07-5.49-.21-7.42,2.49l-4.79,7.71c2.78,3.01,4.3,6.95,4.52,11.04h7.84c1.13-4.08,6.91-4.57,8.63-.64,1.84,4.21-3,8.23-6.59,5.84-.39-.26-1-.81-1.3-1.22-.33-.45-.55-.93-.74-1.46l-7.93.04c-.34,2.62-1.16,5.11-2.56,7.34-.55.87-1.22,1.64-1.79,2.48.6,1.09,1.25,2.16,1.9,3.22.94,1.53,2.69,4.72,3.98,5.76,1.95,1.56,4.12,1.08,6.45,1.13,1.09-3.79,6.3-4.5,8.33-1.06,2.63,4.45-2.92,9.12-6.85,5.93-.77-.62-1.16-1.42-1.57-2.29-.76-.1-1.52.05-2.29.03-2.84-.06-5.28-.87-7.04-3.2-1.59-2.1-3.11-4.99-4.57-7.27-.09-.14-.16-.28-.19-.45-.95.56-1.8,1.27-2.77,1.81-6.24,3.42-14.01,2.63-19.52-1.81-1.35,2.15-2.69,4.31-4.06,6.44-2.27,3.54-4,4.41-8.29,4.47-.42,0-.75,0-1.17,0-.21,0-.37-.07-.57-.08-.19.05-.39.75-.53.99-2.16,3.87-8.13,2.71-8.59-1.64-.6-5.67,7.26-7.18,9.03-1.88,1.72-.09,3.43.27,5.06-.38.96-.38,1.79-1.06,2.39-1.9l4.84-7.84c-2.37-2.78-4-6.18-4.37-9.86h-7.92c-.51,1.38-1.54,2.6-2.97,3.08-4.18,1.39-7.76-3.3-5.29-6.97,2.18-3.24,7.2-2.3,8.27,1.38h7.84c.13-3.49,1.31-6.83,3.32-9.65.19-.27,1.04-1.16,1.09-1.35s-.08-.31-.15-.45c-1.63-2.34-2.94-5.03-4.57-7.36-1.88-2.7-4.54-2.51-7.54-2.45-.81,2.55-3.38,3.99-5.97,3.11-3.34-1.12-4.17-5.57-1.47-7.85,2.54-2.15,6.47-.94,7.4,2.21ZM60.41,67.62c-.96-3.44-2.08-6.84-3.15-10.24-.08-.24.06-.62-.41-.72l-3.06.06-3.29,10.9h2.48l.81-2.76c.12-.13,3.04-.14,3.16,0l.77,2.75h2.69ZM64.35,63.76h1.64c2.77,0,4.76-3.17,3.22-5.57-1.4-2.17-5.2-1.54-7.37-1.4v10.83h2.39l.13-.13v-3.74ZM73.76,56.7h-2.52v10.91h2.39l.13-.13v-10.79Z"/>
    <polygon class="cls-1" points="56.55 62.92 54.2 62.92 55.33 58.63 56.55 62.92"/>
    <path class="cls-1" d="M64.35,61.82v-3.27c.62-.03,1.14-.1,1.75.05.03,0,.43.19.45.21.95.68.85,2.11-.12,2.71-.09.06-.73.3-.79.3h-1.3Z"/>
  </g>
</svg>