<?xml version="1.0" encoding="UTF-8"?>
<svg id="a" data-name="Layer 1" xmlns="http://www.w3.org/2000/svg" viewBox="0 0 1500 300">
  <path d="M77.25,199.16h-27.69l70.38-98.33h27.77l70.38,98.33h-27.69l-10.07-14.07-13.85-19.35-32.62-45.57-32.66,45.57-13.86,19.35-10.08,14.07Z" style="fill: #fff; stroke-width: 0px;"/>
  <path d="M340,145.16h53.77c8.47,0,15.49-5.66,15.49-12.49s-7.02-12.49-15.49-12.49h-105.08v-19.35h105.08c21.71,0,39.47,14.33,39.47,31.84,0,14.89-12.84,27.47-30.03,30.91l36.03,35.58h-30.97l-35.09-34.65h-60.5v34.65h-23.98v-54h51.31Z" style="fill: #fff; stroke-width: 0px;"/>
  <path d="M539.74,100.84v98.33h-23.99v-98.33h23.99Z" style="fill: #fff; stroke-width: 0px;"/>
  <path d="M758.99,137.74v24.51c0,20.3-20.59,36.91-45.76,36.91h-53.04c-25.17,0-45.76-16.61-45.76-36.91v-24.51c0-20.3,20.59-36.91,45.76-36.91h53.04c25.17,0,45.76,16.61,45.76,36.91ZM713.24,179.82c11.98,0,21.77-7.9,21.77-17.56v-24.51c0-9.66-9.8-17.56-21.77-17.56h-53.04c-11.98,0-21.77,7.9-21.77,17.56v24.51c0,9.66,9.8,17.56,21.77,17.56h53.04Z" style="fill: #fff; stroke-width: 0px;"/>
  <path d="M1005.2,100.84v98.33h-23.98v-71.28l-63.2,71.28-63.2-71.28v71.28h-23.98v-98.33h29.49l57.7,65.07,57.7-65.07h29.49Z" style="fill: #fff; stroke-width: 0px;"/>
  <path d="M1078.06,100.84h144.54v19.35h-144.54v-19.35ZM1178.62,140.33h-100.56v19.35h120.56v-19.35h-20ZM1198.62,179.82h-120.56v19.35h144.54v-19.35h-23.98Z" style="fill: #fff; stroke-width: 0px;"/>
  <path d="M1356.36,150l-60.34-49.16h33.75l43.46,35.41,43.46-35.41h33.75l-60.33,49.16,60.33,49.16h-33.75l-43.46-35.42-43.46,35.42h-33.75l60.34-49.16Z" style="fill: #fff; stroke-width: 0px;"/>
</svg>