<?xml version="1.0" encoding="UTF-8"?>
<svg id="a" data-name="Layer 1" xmlns="http://www.w3.org/2000/svg" xmlns:xlink="http://www.w3.org/1999/xlink" viewBox="0 0 1500 300">
  <defs>
    <linearGradient id="b" x1="136.07" y1="73.27" x2="134.03" y2="187.65" gradientUnits="userSpaceOnUse">
      <stop offset="0" stop-color="#0b1e59"/>
      <stop offset="1" stop-color="#2e69fa"/>
    </linearGradient>
    <linearGradient id="c" x1="365.26" y1="77.36" x2="363.22" y2="191.74" xlink:href="#b"/>
    <linearGradient id="d" x1="529" y1="80.28" x2="526.95" y2="194.66" xlink:href="#b"/>
    <linearGradient id="e" x1="687.91" y1="83.12" x2="685.87" y2="197.5" xlink:href="#b"/>
    <linearGradient id="f" x1="919.14" y1="87.25" x2="917.1" y2="201.63" xlink:href="#b"/>
    <linearGradient id="g" x1="1151.38" y1="91.4" x2="1149.34" y2="205.78" xlink:href="#b"/>
    <linearGradient id="h" x1="1374.21" y1="95.37" x2="1372.17" y2="209.76" xlink:href="#b"/>
  </defs>
  <path d="M77.25,199.16h-27.69l70.38-98.33h27.77l70.38,98.33h-27.69l-10.07-14.07-13.85-19.35-32.62-45.57-32.66,45.57-13.86,19.35-10.08,14.07Z" style="fill: url(#b); stroke-width: 0px;"/>
  <path d="M340,145.16h53.77c8.47,0,15.49-5.66,15.49-12.49s-7.02-12.49-15.49-12.49h-105.08v-19.35h105.08c21.71,0,39.47,14.33,39.47,31.84,0,14.89-12.84,27.47-30.03,30.91l36.03,35.58h-30.97l-35.09-34.65h-60.5v34.65h-23.98v-54h51.31Z" style="fill: url(#c); stroke-width: 0px;"/>
  <path d="M539.74,100.84v98.33h-23.99v-98.33h23.99Z" style="fill: url(#d); stroke-width: 0px;"/>
  <path d="M758.99,137.74v24.51c0,20.3-20.59,36.91-45.76,36.91h-53.04c-25.17,0-45.76-16.61-45.76-36.91v-24.51c0-20.3,20.59-36.91,45.76-36.91h53.04c25.17,0,45.76,16.61,45.76,36.91ZM713.24,179.82c11.98,0,21.77-7.9,21.77-17.56v-24.51c0-9.66-9.8-17.56-21.77-17.56h-53.04c-11.98,0-21.77,7.9-21.77,17.56v24.51c0,9.66,9.8,17.56,21.77,17.56h53.04Z" style="fill: url(#e); stroke-width: 0px;"/>
  <path d="M1005.2,100.84v98.33h-23.98v-71.28l-63.2,71.28-63.2-71.28v71.28h-23.98v-98.33h29.49l57.7,65.07,57.7-65.07h29.49Z" style="fill: url(#f); stroke-width: 0px;"/>
  <path d="M1078.06,100.84h144.54v19.35h-144.54v-19.35ZM1178.62,140.33h-100.56v19.35h120.56v-19.35h-20ZM1198.62,179.82h-120.56v19.35h144.54v-19.35h-23.98Z" style="fill: url(#g); stroke-width: 0px;"/>
  <path d="M1356.36,150l-60.34-49.16h33.75l43.46,35.41,43.46-35.41h33.75l-60.33,49.16,60.33,49.16h-33.75l-43.46-35.42-43.46,35.42h-33.75l60.34-49.16Z" style="fill: url(#h); stroke-width: 0px;"/>
</svg>