<?xml version="1.0" encoding="UTF-8"?>
<svg id="Layer_1" data-name="Layer 1" xmlns="http://www.w3.org/2000/svg" viewBox="0 0 200 200">
  <defs>
    <style>
      .cls-1 {
        fill: #a7a9ac;
      }
    </style>
  </defs>
  <path class="cls-1" d="M30.09,80.28c1.39.29,2.95-.67,3.28-1.85,2.33-8.31,6.26-15.95,11.7-22.71.92-1.15.74-2.82-.41-3.74-1.15-.92-2.82-.74-3.74.41-5.89,7.32-10.15,15.6-12.68,24.61-.4,1.42.4,2.98,1.84,3.28Z"/>
  <path class="cls-1" d="M161.37,98.37c1.47,0,2.66-1.19,2.66-2.66,0-38.14-31.03-69.17-69.17-69.17-16.5,0-32.48,5.91-44.99,16.63-1.12.96-1.24,2.64-.29,3.75.96,1.12,2.64,1.25,3.75.29,11.55-9.9,26.3-15.35,41.53-15.35,35.21,0,63.85,28.64,63.85,63.85,0,1.47,1.19,2.66,2.66,2.66Z"/>
  <path class="cls-1" d="M146.84,99.98c.07,0,.15,0,.22,0,1.47-.12,2.56-1.4,2.44-2.87-.91-11.14-4.03-21.64-9.27-31.21-4.25-7.77-10.66-14.34-18.53-18.99-8.08-4.78-17.36-7.3-26.84-7.3-24.82,0-46.78,16.6-53.39,40.37-.23.84-.51,2.03-.82,3.55-.48,2.29-2.35,4.03-4.65,4.32-2.23.28-4.78.48-7.59.59-1.47.06-2.61,1.3-2.55,2.77s1.29,2.61,2.77,2.55c2.96-.12,5.67-.33,8.05-.63,4.56-.58,8.26-4,9.19-8.52.29-1.4.54-2.48.74-3.21,5.98-21.47,25.82-36.47,48.26-36.47,8.52,0,16.87,2.27,24.13,6.56,7.05,4.16,12.78,10.03,16.57,16.96,4.88,8.91,7.78,18.7,8.63,29.09.11,1.39,1.28,2.45,2.65,2.45Z"/>
  <path class="cls-1" d="M135,103.67h.08c1.43,0,2.62-1.14,2.66-2.59.07-2.44,0-4.52-.21-6.2-.21-10.94-4.56-21.26-12.26-29.09-1.03-1.05-2.72-1.06-3.76-.03-1.05,1.03-1.06,2.72-.03,3.77,6.77,6.88,10.58,15.97,10.73,25.59,0,.1,0,.21.02.31.19,1.43.25,3.28.19,5.51-.04,1.47,1.12,2.69,2.59,2.74Z"/>
  <path class="cls-1" d="M28.6,106.5h.36c8.21-.33,14.99-1.37,20.18-3.09,4.81-1.6,8.17-5.96,8.56-11.12.07-1,.2-2,.36-2.96,1.48-8.57,5.96-16.41,12.62-22.08,6.75-5.74,15.33-8.9,24.18-8.9,6.01,0,11.99,1.47,17.28,4.25,1.3.68,2.91.18,3.59-1.12.68-1.3.18-2.91-1.12-3.59-6.06-3.18-12.89-4.85-19.76-4.85-10.11,0-19.93,3.61-27.63,10.17-7.61,6.47-12.73,15.43-14.42,25.23-.19,1.13-.34,2.29-.42,3.46-.23,3.01-2.16,5.55-4.93,6.47-3.24,1.07-9.11,2.43-18.7,2.81h-.36c-1.47.07-2.61,1.31-2.56,2.78.06,1.43,1.24,2.56,2.66,2.56.03,0,.07,0,.11,0Z"/>
  <path class="cls-1" d="M101.62,159.07c-2.72,1.68-5.63,3.21-8.67,4.54-1.35.59-1.96,2.16-1.37,3.51.44,1,1.42,1.59,2.44,1.59.36,0,.72-.07,1.07-.22,3.26-1.43,6.4-3.07,9.33-4.89,1.25-.77,1.64-2.41.86-3.67-.77-1.25-2.41-1.63-3.66-.86Z"/>
  <path class="cls-1" d="M121.7,109.27c1.46.15,2.77-.91,2.92-2.37.64-6.11.27-10.44.17-11.34-.08-16.44-13.48-29.79-29.94-29.79-14.61,0-27.02,10.44-29.5,24.83-.33,1.92-.43,4-.29,6.35.08,1.43-.18,4.28-2.89,7.27-3.61,3.97-12.25,8.88-32.92,9.68-1.47.06-2.61,1.29-2.56,2.76.06,1.43,1.24,2.56,2.66,2.56.03,0,.07,0,.11,0,18.08-.71,30.41-4.55,36.66-11.42,4.01-4.42,4.4-8.88,4.27-11.15-.11-1.94-.04-3.62.22-5.14,2.04-11.83,12.24-20.41,24.25-20.41,13.57,0,24.61,11.04,24.61,24.61,0,.1,0,.21.02.31,0,.04.48,4.22-.16,10.33-.15,1.46.91,2.77,2.37,2.92Z"/>
  <path class="cls-1" d="M105.31,142.51c-.97-1.1-2.66-1.2-3.76-.23-8.81,7.79-20.68,13-35.3,15.49-1.45.25-2.42,1.62-2.17,3.07.22,1.3,1.35,2.21,2.62,2.21.15,0,.3-.01.45-.04,15.61-2.66,28.37-8.3,37.93-16.75,1.1-.97,1.2-2.66.23-3.76Z"/>
  <path class="cls-1" d="M112.75,95.6c-.06-9.81-8.06-17.78-17.89-17.78-8.73,0-16.15,6.24-17.63,14.83-.17,1.01-.22,2.19-.14,3.61.19,3.32-.34,9.82-6,16.05-5.86,6.46-15.14,10.54-28.35,12.47-3.53.27-6.91.56-10.03.86-1.46.14-2.54,1.44-2.4,2.9.14,1.46,1.44,2.54,2.9,2.4,3.12-.29,6.5-.58,10.03-.86.06,0,.12-.01.18-.02,14.53-2.12,24.87-6.75,31.61-14.17,6.97-7.67,7.61-15.79,7.37-19.94-.06-1-.03-1.81.07-2.4,1.04-6.04,6.25-10.42,12.38-10.42,6.93,0,12.57,5.64,12.57,12.57,0,.07,0,.15,0,.23.02.19,1.52,19.58-10.64,33.06-6.73,7.46-22.54,16.26-46.74,18.61-1.46.14-2.54,1.44-2.39,2.91.13,1.38,1.29,2.41,2.64,2.41.09,0,.17,0,.26-.01,21.51-2.08,40.74-9.88,50.18-20.34,13.31-14.76,12.14-35.04,12-36.96Z"/>
  <path class="cls-1" d="M67.65,130.77c-3.54,1.54-7.36,2.81-11.35,3.79-5.17,1.27-10.69,2.05-16.42,2.34-1.47.07-2.6,1.32-2.53,2.79.07,1.42,1.25,2.53,2.66,2.53.04,0,.09,0,.13,0,6.07-.3,11.93-1.14,17.42-2.48,4.28-1.05,8.39-2.42,12.21-4.08,7.32-3.18,13.74-7.47,19.07-12.77,5.57-5.52,8.53-14.4,8.34-25.02,0-.09,0-.17,0-.23.06-.75-.2-1.52-.77-2.09-1.04-1.04-2.73-1.04-3.77,0-.81.81-.79,1.7-.78,2.41.16,9.15-2.24,16.66-6.77,21.14-4.87,4.82-10.73,8.75-17.45,11.66Z"/>
  <path class="cls-1" d="M142.18,150.43c-1.47,0-2.66,1.19-2.66,2.66v5.35c0,1.47,1.19,2.66,2.66,2.66s2.66-1.19,2.66-2.66v-5.35c0-1.47-1.19-2.66-2.66-2.66Z"/>
  <path class="cls-1" d="M150.29,150.43c-1.47,0-2.66,1.19-2.66,2.66v5.35c0,1.47,1.19,2.66,2.66,2.66s2.66-1.19,2.66-2.66v-5.35c0-1.47-1.19-2.66-2.66-2.66Z"/>
  <path class="cls-1" d="M158.4,150.43c-1.47,0-2.66,1.19-2.66,2.66v5.35c0,1.47,1.19,2.66,2.66,2.66s2.66-1.19,2.66-2.66v-5.35c0-1.47-1.19-2.66-2.66-2.66Z"/>
  <path class="cls-1" d="M150.29,107.05c-22.36,0-40.56,18.19-40.56,40.56s18.19,40.56,40.56,40.56,40.56-18.19,40.56-40.56-18.19-40.56-40.56-40.56ZM150.29,182.84c-19.43,0-35.23-15.81-35.23-35.23s15.81-35.23,35.23-35.23,35.23,15.81,35.23,35.23-15.81,35.23-35.23,35.23Z"/>
  <path class="cls-1" d="M111.84,176.29c-5.52,1.18-11.21,1.78-16.91,1.78-21.49,0-41.7-8.37-56.89-23.57-15.2-15.2-23.57-35.4-23.57-56.89s8.37-41.7,23.57-56.89c15.2-15.2,35.4-23.57,56.89-23.57s41.7,8.37,56.89,23.57c15.2,15.2,23.57,35.4,23.57,56.89,0,2.98-.17,5.99-.49,8.94-.16,1.46.89,2.78,2.35,2.94,1.46.16,2.78-.89,2.94-2.35.35-3.15.53-6.35.53-9.53,0-22.91-8.92-44.46-25.12-60.66-16.2-16.2-37.74-25.13-60.66-25.13s-44.46,8.92-60.66,25.13c-16.2,16.2-25.13,37.74-25.13,60.66s8.92,44.46,25.13,60.66c16.2,16.2,37.74,25.13,60.66,25.13,6.07,0,12.13-.64,18.02-1.9,1.44-.31,2.35-1.72,2.05-3.16-.31-1.44-1.72-2.35-3.16-2.05Z"/>
  <path class="cls-1" d="M166.01,139.56h-.55v-4.69c0-8.36-6.8-15.16-15.17-15.16s-15.17,6.8-15.17,15.16v4.69h-.55c-2.32,0-4.21,1.89-4.21,4.21v22.48c0,2.32,1.89,4.21,4.21,4.21h31.43c2.32,0,4.21-1.89,4.21-4.21v-22.48c0-2.32-1.89-4.21-4.21-4.21ZM140.45,134.87c0-5.43,4.42-9.84,9.84-9.84s9.84,4.42,9.84,9.84v4.69h-19.68v-4.69ZM164.9,165.14h-29.21v-20.26h29.21v20.26Z"/>
</svg>