<?xml version="1.0" encoding="UTF-8"?>
<svg id="Layer_1" data-name="Layer 1" xmlns="http://www.w3.org/2000/svg" viewBox="0 0 200 200">
  <defs>
    <style>
      .cls-1 {
        fill: #a7a9ac;
      }
    </style>
  </defs>
  <path class="cls-1" d="M143.72,128.48h-17.24c3.61-2.43,6.76-5.67,9.14-9.63,4.22-7.03,5.45-15.28,3.47-23.24-1.32-5.3-3.97-10.05-7.67-13.88l-.28-1.79c-1.1-7.06-2.46-15.84-2.95-19.75-.48-3.83-2.54-7.35-5.66-9.64l-23.31-17.18c-3.81-2.81-8.33-4.36-13.07-4.47-15.6-.39-27.38-1.27-32.47-2.41l-.14-.08.6-.99c1.48-2.46.68-5.66-1.78-7.14l-9.4-5.66c-1.19-.72-2.59-.93-3.94-.59-1.35.34-2.49,1.18-3.21,2.37L10.98,55.74c-1.48,2.46-.68,5.66,1.78,7.14l9.4,5.66c.82.5,1.74.75,2.68.75.42,0,.85-.05,1.27-.16.3-.08.59-.18.87-.3l6.06,9.47c3.3,5.09,7.96,9.1,13.49,11.6l12.29,5.55,20.15,12.1c1.27,8.59,6,16.08,13.18,20.92h-16.74c-2.54,0-4.62,2.07-4.62,4.62v5.71c0,2.54,2.07,4.62,4.62,4.62h68.33c2.54,0,4.61-2.07,4.61-4.62v-5.71c0-2.55-2.07-4.62-4.61-4.62ZM15.48,58.45l-2.25-1.35,2.25,1.35ZM25.23,63.32s-.04.06-.05.09l-.36.6-9.31-5.61,24.79-41.27,9.31,5.61-24.38,40.58ZM74.92,95.87l-1.38,2.3-12.15-7.3c-.09-.05-.18-.1-.27-.14l-12.42-5.62c-4.61-2.08-8.49-5.43-11.23-9.66l-6.9-10.78,20.28-33.77.57.32c.22.12.45.22.69.27,7.17,1.75,24.34,2.41,33.94,2.64,3.65.09,7.14,1.28,10.08,3.45l23.31,17.18c1.96,1.44,3.25,3.65,3.56,6.07.41,3.28,1.41,9.84,2.37,16.01-.08-.05-.15-.09-.23-.14-4.1-2.46-8.68-3.91-13.38-4.29l-3.23-7.72c-.18-.44-.48-.81-.86-1.1l-9.15-6.78c-.63-.47-1.44-.63-2.2-.44l-23.15,5.78c-.22.05-.44.14-.64.25-3.49,1.93-5.73,6.9-4.8,10.64l.02.09c.57,2.29,1.99,4.21,4.01,5.42,2.86,1.72,8.05,4.83,12.62,7.58.54.32,1.07.68,1.61,1.07,0,0,0,0,0,0,.07.06.15.11.22.16,5.33,4,10.18,11.07,11.27,16.72.38,1.96.22,3.52-.44,4.39-.06.08-.11.15-.16.23-.66,1.1-1.35,1.28-1.93,1.31-.42.02-.9-.05-1.43-.2,2.04-4.96.2-10.81-4.53-13.65l-4.52-2.72c-3.29-1.98-7.57-.91-9.54,2.38ZM106.07,72.51c-.7.07-1.4.17-2.1.3-6.42,1.14-12.29,4.28-16.76,8.93-.05-.03-.09-.06-.14-.08-4.57-2.74-9.76-5.86-12.62-7.58-.81-.48-1.38-1.26-1.61-2.19l-.02-.08c-.34-1.37.7-3.7,2-4.62l21.55-5.38,7.57,5.61,2.14,5.1ZM78.04,100.88l1.38-2.3c.48-.8,1.52-1.06,2.33-.58l4.52,2.72c2.32,1.39,3.31,4.16,2.55,6.63l-10.78-6.47ZM85.26,111.35l3.25,1.95s0,0,0,0h0l.12.08c2.15,1.29,4.21,1.94,6.13,1.94.15,0,.3,0,.45-.01,1.66-.09,3.13-.67,4.35-1.7.38,2.28,4.1,4.76,8.96,4.88v1.19c0,.55.64,1.06,1.44,1.06.72,0,1.44-.51,1.44-1.06v-1.31c4.75-.76,8.01-3.77,8.01-8.99,0-5.77-4.24-7.67-8.01-9.07v-7.46c2.84.21,3.81,1.57,5,1.57,1.57,0,2.25-1.95,2.25-2.93,0-2.46-4.49-3.26-7.25-3.35v-1.1c0-.55-.72-1.06-1.44-1.06-.81,0-1.44.51-1.44,1.06v1.19c-4.24.55-8.22,2.88-8.22,8.27v.04c-2.1-4.22-5.28-8.41-8.85-11.6,3.65-3.6,8.33-6.03,13.44-6.94,1.63-.29,3.28-.42,4.92-.38.06,0,.12,0,.18,0,4.35.12,8.64,1.35,12.43,3.62,1.66,1,3.19,2.17,4.55,3.48.1.12.21.23.33.32,3.24,3.23,5.56,7.29,6.7,11.85,1.65,6.59.62,13.43-2.88,19.25-7.22,12.02-22.88,15.93-34.9,8.71-5.22-3.14-9.04-7.89-10.95-13.49ZM108.52,105.01v8.44c-3.61-.41-4.92-3-6.46-3.17.9-1.94,1.1-4.38.57-7.16-.09-.49-.21-.99-.35-1.49,1.63,1.65,4.02,2.55,6.24,3.38ZM105.47,95.94c0-1.61,1.27-2.63,3.39-2.97v6.4c-1.95-.76-3.39-1.57-3.39-3.43ZM111.06,113.4v-7.38c1.82.81,3.18,1.82,3.18,3.9s-1.31,3.09-3.18,3.48ZM143.08,138.16h-67.04v-4.43h67.04v4.43Z"/>
  <path class="cls-1" d="M178.47,110.06h-32.28c-1.45,0-2.63,1.18-2.63,2.63s1.18,2.63,2.63,2.63h32.28c3.33,0,6.03,2.71,6.03,6.03v55.5c0,3.33-2.71,6.03-6.03,6.03H40.15c-3.33,0-6.04-2.71-6.04-6.03v-55.5c0-3.33,2.71-6.03,6.04-6.03h32.25c1.45,0,2.63-1.18,2.63-2.63s-1.18-2.63-2.63-2.63h-32.25c-6.23,0-11.3,5.07-11.3,11.29v55.5c0,6.23,5.07,11.3,11.3,11.3h138.32c6.23,0,11.29-5.07,11.29-11.3v-55.5c0-6.23-5.07-11.29-11.29-11.29Z"/>
  <path class="cls-1" d="M109.79,85.98c-.81,0-1.44.51-1.44,1.06v1.19c-4.24.55-8.22,2.88-8.22,8.27v.04s.43,3.4,1.98,5.1c1.63,1.65,4.02,2.55,6.24,3.38v8.44c-3.61-.41-4.92-3-6.46-3.17,0,0-3.22-.19-2.5,3.34.38,2.28,4.1,4.76,8.96,4.88v1.19c0,.55.64,1.06,1.44,1.06.72,0,1.44-.51,1.44-1.06v-1.31c4.75-.76,8.01-3.77,8.01-8.99,0-5.77-4.24-7.67-8.01-9.07v-7.46c2.84.21,3.81,1.57,5,1.57,1.57,0,2.25-1.95,2.25-2.93,0-2.46-4.49-3.26-7.25-3.35v-1.1c0-.55-.72-1.06-1.44-1.06ZM108.68,99.37c-1.95-.76-3.39-1.57-3.39-3.43,0-1.61,1.27-2.63,3.39-2.97v6.4ZM114.07,109.93c0,1.99-1.31,3.09-3.18,3.48v-7.38c1.82.81,3.18,1.82,3.18,3.9Z"/>
  <path class="cls-1" d="M91.96,128.48s14.51,11.08,34.35,0c3.61-2.43,6.76-5.67,9.14-9.63,4.22-7.03,5.45-15.28,3.47-23.24-1.32-5.3-3.97-10.05-7.67-13.88-2.19-2.54-6.08-4.87-6.08-4.87-.08-.05-.15-.09-.23-.14-4.1-2.46-8.68-3.91-13.38-4.29-3.16-.42-5.67.08-5.67.08-.7.07-1.4.17-2.1.3-6.42,1.14-12.29,4.28-16.76,8.92l4.24,3.19c3.65-3.6,8.33-6.03,13.44-6.94,1.63-.29,3.28-.42,4.92-.38.06,0,.12,0,.18,0,4.35.12,8.64,1.35,12.43,3.62,1.66,1,3.19,2.17,4.55,3.48.1.12.21.23.33.32,3.24,3.23,5.56,7.29,6.7,11.85,1.64,6.59.62,13.43-2.88,19.25-7.22,12.02-22.88,15.93-34.9,8.71-5.22-3.14-9.04-7.89-10.95-13.49l-6.31-3.79c1.27,8.59,6,16.08,13.18,20.92Z"/>
</svg>