<?xml version="1.0" encoding="UTF-8"?>
<svg id="Layer_1" data-name="Layer 1" xmlns="http://www.w3.org/2000/svg" viewBox="0 0 200 200">
  <defs>
    <style>
      .cls-1 {
        fill: #a7a9ac;
      }
    </style>
  </defs>
  <g id="g508">
    <g id="g514">
      <path class="cls-1" d="M131.08,187.74c-31.24,0-56.66-25.42-56.66-56.66,0-3.09.25-6.19.75-9.21.23-1.4,1.55-2.36,2.95-2.12,1.4.23,2.35,1.55,2.12,2.95-.45,2.74-.68,5.56-.68,8.38,0,28.41,23.11,51.51,51.52,51.51s51.52-23.11,51.52-51.51-23.11-51.52-51.52-51.52c-2.82,0-5.64.23-8.38.68-1.41.23-2.72-.72-2.95-2.12-.23-1.4.72-2.72,2.12-2.95,3.01-.5,6.11-.75,9.21-.75,31.24,0,56.66,25.42,56.66,56.66s-25.42,56.66-56.66,56.66Z"/>
    </g>
    <g id="g518">
      <path class="cls-1" d="M93.51,143.49c-1.14,0-2.18-.76-2.49-1.92-.89-3.4-1.34-6.93-1.34-10.49,0-5.5,1.06-10.84,3.16-15.88.55-1.31,2.05-1.93,3.36-1.39,1.31.54,1.93,2.05,1.39,3.36-1.83,4.41-2.76,9.09-2.76,13.9,0,3.12.39,6.21,1.17,9.18.36,1.37-.46,2.78-1.84,3.14-.22.06-.44.08-.65.08Z"/>
    </g>
    <g id="g522">
      <path class="cls-1" d="M131.08,172.49c-14.8,0-28.57-7.99-35.94-20.84-.71-1.23-.28-2.8.95-3.51,1.23-.71,2.8-.28,3.51.95,6.45,11.26,18.52,18.26,31.48,18.26,20,0,36.26-16.27,36.26-36.26s-16.27-36.26-36.26-36.26c-4.82,0-9.5.93-13.91,2.76-1.31.54-2.81-.08-3.36-1.39-.55-1.31.08-2.82,1.39-3.36,5.03-2.09,10.38-3.15,15.88-3.15,22.83,0,41.4,18.57,41.4,41.4s-18.57,41.4-41.4,41.4Z"/>
    </g>
    <g id="g526">
      <path class="cls-1" d="M68.92,125.57c-31.24,0-56.66-25.42-56.66-56.66S37.67,12.26,68.92,12.26s56.66,25.42,56.66,56.66-25.42,56.66-56.66,56.66ZM68.92,17.4c-28.41,0-51.52,23.11-51.52,51.52s23.11,51.52,51.52,51.52,51.52-23.11,51.52-51.52-23.11-51.52-51.52-51.52Z"/>
    </g>
    <g id="g530">
      <path class="cls-1" d="M68.92,110.32c-22.83,0-41.4-18.57-41.4-41.4s18.57-41.4,41.4-41.4,41.4,18.57,41.4,41.4-18.57,41.4-41.4,41.4ZM68.92,32.65c-20,0-36.26,16.27-36.26,36.26s16.27,36.26,36.26,36.26,36.26-16.27,36.26-36.26-16.27-36.26-36.26-36.26Z"/>
    </g>
    <g id="g542">
      <path class="cls-1" d="M175.46,73.45c-1.66,0-3.32-.35-4.88-1.06-2.89-1.3-5.09-3.65-6.21-6.62-1.18-3.13-2.8-6.01-4.83-8.6-.91,1.47-2.26,2.65-3.92,3.39-2.93,1.31-6.23.96-8.83-.92l-21.3-15.45c-2.6-1.88-3.95-4.91-3.61-8.1.33-3.19,2.28-5.88,5.21-7.19l24.03-10.72c2.93-1.31,6.23-.96,8.83.92,2.6,1.88,3.95,4.92,3.62,8.11l-.22,2.09c1.99,1.22,3.9,2.55,5.69,3.99,1.11.88,1.29,2.5.41,3.61-.89,1.11-2.5,1.29-3.61.41-2.03-1.62-4.21-3.1-6.5-4.41-.88-.51-1.38-1.49-1.28-2.5l.39-3.73c.14-1.34-.43-2.62-1.52-3.41-1.09-.79-2.48-.94-3.72-.39l-24.03,10.72c-1.23.55-2.05,1.68-2.19,3.02-.14,1.34.43,2.62,1.52,3.41l21.3,15.45c1.09.79,2.48.94,3.71.39,1.23-.55,2.05-1.68,2.19-3.02l.11-1.05c.1-.98.75-1.81,1.68-2.15.93-.34,1.96-.11,2.67.57,3.99,3.87,7.02,8.5,9,13.74.63,1.68,1.88,3.01,3.52,3.75,1.64.74,3.46.8,5.14.16,3.46-1.31,5.22-5.19,3.91-8.66-2.09-5.54-5.08-10.62-8.88-15.1-.92-1.08-.79-2.7.29-3.62,1.08-.92,2.7-.79,3.62.29,4.19,4.92,7.48,10.51,9.78,16.61,2.31,6.11-.79,12.97-6.9,15.28-1.36.51-2.78.77-4.19.77Z"/>
    </g>
    <g id="g546">
      <path class="cls-1" d="M45.24,182.6c-1.83,0-3.64-.58-5.19-1.7-2.6-1.88-3.95-4.92-3.62-8.11h0l.22-2.09c-10.59-6.49-18.8-16.41-23.21-28.09-2.31-6.12.79-12.97,6.9-15.28,6.12-2.31,12.98.79,15.28,6.91,1.18,3.13,2.8,6.01,4.83,8.6.91-1.47,2.26-2.65,3.92-3.39,2.93-1.31,6.23-.96,8.83.92l21.3,15.45c2.6,1.88,3.95,4.91,3.62,8.1-.33,3.19-2.28,5.88-5.21,7.19l-24.03,10.72c-1.18.53-2.41.78-3.64.78ZM41.55,173.32c-.14,1.34.43,2.62,1.52,3.41,1.09.79,2.48.93,3.71.39l24.03-10.72c1.23-.55,2.05-1.68,2.19-3.02.14-1.34-.43-2.62-1.52-3.41l-21.3-15.45c-1.09-.79-2.48-.94-3.72-.39-1.23.55-2.05,1.68-2.19,3.02l-.11,1.06c-.1.98-.76,1.81-1.68,2.15-.93.33-1.96.11-2.67-.57-3.99-3.88-7.02-8.5-9-13.74-1.31-3.46-5.19-5.22-8.66-3.91-3.46,1.31-5.22,5.19-3.91,8.66,4.19,11.1,12.15,20.44,22.4,26.31.88.5,1.39,1.49,1.28,2.5l-.39,3.73Z"/>
    </g>
    <path class="cls-1" d="M144.75,147.75h-24.99c-1.42,0-2.57-1.15-2.57-2.57v-24.99c0-1.42,1.15-2.57,2.57-2.57h24.99c1.42,0,2.57,1.15,2.57,2.57v24.99c0,1.42-1.15,2.57-2.57,2.57ZM122.33,142.61h19.85v-19.85h-19.85v19.85Z"/>
    <path class="cls-1" d="M81.36,79.57h-30.34c-.92,0-1.77-.49-2.23-1.29-.23-.4-.34-.84-.34-1.28s.11-.89.34-1.28l15.17-26.28c.46-.8,1.31-1.29,2.23-1.29s1.77.49,2.23,1.29l15.17,26.28c.23.4.34.84.34,1.28s-.11.89-.34,1.28c-.46.8-1.31,1.29-2.23,1.29ZM55.47,74.43h21.43l-10.72-18.56-10.72,18.56Z"/>
  </g>
</svg>