<?xml version="1.0" encoding="UTF-8"?>
<svg id="Layer_1" data-name="Layer 1" xmlns="http://www.w3.org/2000/svg" viewBox="0 0 200 200">
  <defs>
    <style>
      .cls-1 {
        fill: #a7a9ac;
      }
    </style>
  </defs>
  <g id="g2119">
    <g id="g2125">
      <path class="cls-1" d="M109.42,152.66H22c-6.04,0-10.95-4.91-10.95-10.95V30.48c0-6.04,4.91-10.95,10.95-10.95h133.49c6.04,0,10.95,4.91,10.95,10.95v65.35c0,1.44-1.17,2.61-2.61,2.61s-2.61-1.17-2.61-2.61V30.48c0-3.16-2.57-5.74-5.74-5.74H22c-3.16,0-5.74,2.57-5.74,5.74v111.24c0,3.16,2.57,5.74,5.74,5.74h87.43c1.44,0,2.61,1.17,2.61,2.61s-1.17,2.61-2.61,2.61Z"/>
    </g>
    <g id="g2129">
      <path class="cls-1" d="M24.81,38.64c-1.44,0-2.62-1.17-2.62-2.61s1.15-2.61,2.59-2.61h.03c1.44,0,2.61,1.17,2.61,2.61s-1.17,2.61-2.61,2.61Z"/>
    </g>
    <g id="g2133">
      <path class="cls-1" d="M41.46,38.64c-1.44,0-2.62-1.17-2.62-2.61s1.15-2.61,2.59-2.61h.03c1.44,0,2.61,1.17,2.61,2.61s-1.17,2.61-2.61,2.61Z"/>
    </g>
    <g id="g2137">
      <path class="cls-1" d="M33.12,38.64c-1.44,0-2.62-1.17-2.62-2.61s1.15-2.61,2.59-2.61h.03c1.44,0,2.61,1.17,2.61,2.61s-1.17,2.61-2.61,2.61Z"/>
    </g>
    <g id="g2141">
      <path class="cls-1" d="M152.7,38.64H52.59c-1.44,0-2.61-1.17-2.61-2.61s1.17-2.61,2.61-2.61h100.11c1.44,0,2.61,1.17,2.61,2.61s-1.17,2.61-2.61,2.61Z"/>
    </g>
    <g id="g2145">
      <path class="cls-1" d="M163.83,52.55H13.65c-1.44,0-2.61-1.17-2.61-2.61s1.17-2.61,2.61-2.61h150.17c1.44,0,2.61,1.17,2.61,2.61s-1.17,2.61-2.61,2.61Z"/>
    </g>
    <g id="g2149">
      <path class="cls-1" d="M97.08,152.66c-1.44,0-2.61-1.17-2.61-2.61v-19.47c0-2.32-1.39-4.4-3.53-5.3l-13.69-5.7c-3.05-1.27-5.03-4.23-5.03-7.54v-5.2c0-1.44,1.17-2.61,2.61-2.61s2.61,1.17,2.61,2.61v5.2c0,1.2.71,2.27,1.82,2.73l13.69,5.7c4.09,1.7,6.74,5.67,6.74,10.11v19.47c0,1.44-1.17,2.61-2.61,2.61Z"/>
    </g>
    <g id="g2153">
      <path class="cls-1" d="M30.34,152.66c-1.44,0-2.61-1.17-2.61-2.61v-19.47c0-4.43,2.65-8.4,6.74-10.11l13.69-5.7c1.1-.46,1.82-1.53,1.82-2.73v-5.2c0-1.44,1.17-2.61,2.61-2.61s2.61,1.17,2.61,2.61v5.2c0,3.31-1.97,6.27-5.03,7.54l-13.69,5.7c-2.14.89-3.53,2.97-3.53,5.3v19.47c0,1.44-1.17,2.61-2.61,2.61Z"/>
    </g>
    <g id="g2157">
      <path class="cls-1" d="M72.06,111.5c-.9,0-1.77-.47-2.26-1.3-.72-1.24-.3-2.84.95-3.56,4.34-2.51,7.04-7.19,7.04-12.2v-11.12c0-6.23-6.32-11.3-14.08-11.3s-14.08,5.07-14.08,11.3v11.12c0,5.01,2.7,9.68,7.04,12.19,1.25.72,1.67,2.32.95,3.56s-2.32,1.67-3.56.95c-5.94-3.44-9.64-9.84-9.64-16.7v-11.12c0-9.1,8.65-16.51,19.29-16.51s19.29,7.41,19.29,16.51v11.12c0,6.87-3.7,13.27-9.64,16.71-.41.24-.86.35-1.3.35Z"/>
    </g>
    <g id="g2161">
      <path class="cls-1" d="M148.8,180.47c-.48,0-.96-.13-1.38-.39-37.48-23.33-38.74-62.53-38.77-64.18-.03-1.44,1.11-2.63,2.55-2.66.02,0,.04,0,.06,0,1.41,0,2.57,1.13,2.6,2.55.01.46,1.31,37.11,34.94,59,29.31-19.07,34.06-49.36,34.8-57.13l-34.8-12.11-26.14,9.09c-1.36.47-2.85-.25-3.32-1.6-.47-1.36.25-2.85,1.6-3.32l27-9.39c.55-.19,1.16-.19,1.71,0l37.54,13.06c1.07.37,1.77,1.39,1.75,2.52-.03,1.66-1.29,40.85-38.77,64.18-.42.26-.9.39-1.38.39Z"/>
    </g>
    <g id="g2165">
      <path class="cls-1" d="M145.95,150.48c-.69,0-1.35-.27-1.84-.76l-11.43-11.43c-1.02-1.02-1.02-2.67,0-3.68,1.02-1.02,2.67-1.02,3.69,0l9.58,9.58,16.11-16.11c1.02-1.02,2.67-1.02,3.69,0,1.02,1.02,1.02,2.67,0,3.68l-17.96,17.96c-.49.49-1.15.76-1.84.76Z"/>
    </g>
    <g id="g2169">
      <path class="cls-1" d="M144.36,83.14h-44.5c-2.97,0-5.39-2.42-5.39-5.39v-8.34c0-2.97,2.42-5.39,5.39-5.39h44.5c2.97,0,5.39,2.42,5.39,5.39v8.34c0,2.97-2.42,5.39-5.39,5.39ZM99.86,69.23c-.1,0-.17.08-.17.17v8.34c0,.1.08.17.17.17h44.5c.1,0,.17-.08.17-.17v-8.34c0-.1-.08-.17-.17-.17h-44.5Z"/>
    </g>
    <g id="g2173">
      <path class="cls-1" d="M133.24,94.26h-33.37c-1.44,0-2.61-1.17-2.61-2.61s1.17-2.61,2.61-2.61h33.37c1.44,0,2.61,1.17,2.61,2.61s-1.17,2.61-2.61,2.61Z"/>
    </g>
    <g id="g2177">
      <path class="cls-1" d="M119.33,105.39h-19.47c-1.44,0-2.61-1.17-2.61-2.61s1.17-2.61,2.61-2.61h19.47c1.44,0,2.61,1.17,2.61,2.61s-1.17,2.61-2.61,2.61Z"/>
    </g>
  </g>
</svg>