<?xml version="1.0" encoding="UTF-8"?>
<svg id="Layer_1" data-name="Layer 1" xmlns="http://www.w3.org/2000/svg" xmlns:xlink="http://www.w3.org/1999/xlink" viewBox="0 0 500 300">
  <defs>
    <style>
      .cls-1 {
        stroke-width: 2.1px;
      }

      .cls-1, .cls-2, .cls-3, .cls-4, .cls-5 {
        fill: none;
      }

      .cls-1, .cls-3, .cls-4, .cls-5 {
        stroke-miterlimit: 10;
      }

      .cls-1, .cls-4 {
        stroke: #fd9200;
      }

      .cls-3 {
        stroke-width: 4.2px;
      }

      .cls-3, .cls-5 {
        stroke: #36f;
      }

      .cls-4 {
        stroke-width: 1.17px;
      }

      .cls-6 {
        fill: #36f;
      }

      .cls-7 {
        fill: #fd9200;
      }

      .cls-5 {
        stroke-width: 2.8px;
      }

      .cls-8 {
        clip-path: url(#clippath);
      }
    </style>
    <clipPath id="clippath">
      <polygon class="cls-2" points="278.89 116.04 278.89 149.55 271.68 150.7 261.56 153.15 250.61 158.14 243.59 164.84 238.27 176.43 236.33 189.29 235.63 210.67 236.33 232.79 237.64 256.07 240.88 269.01 68.79 269.01 68.79 27.57 100.69 8.43 241.46 8.43 278.89 48.41 278.89 116.04"/>
    </clipPath>
  </defs>
  <g>
    <path class="cls-4" d="M285.04,200.66c-2.21,1.18-6.35,3.34-8.21,4.79-.4.31-1.13,1.16-1.13,1.66v11.07l4.88-2.78.15-6.51,5.34-3.17v-5.5c-.36.03-.72.27-1.03.44ZM336.07,207.11c0-.49-.72-1.36-1.13-1.66-2.05-1.52-5.87-3.54-8.21-4.79-.32-.17-.67-.41-1.03-.44v5.5l5.34,3.17.15,6.51,4.88,2.78v-11.07ZM304.34,257.42c1.44.69,1.79.65,3.2-.05l8.41-4.9-4.74-2.83-5.27,2.87-5.37-2.87c-.37.29-4.92,2.65-4.74,2.91l8.51,4.88Z"/>
    <path class="cls-3" d="M405.31,257.72v-69.82c.27-8.59-.48-17.99-6.67-24.86-8.64-9.58-22.08-11.39-34.87-12.4-.89-.09-1.82-.16-2.82-.21-41.89-2.21-79.69.4-79.69.4-15.68.53-31.47,4.44-38.83,18.27-8.05,15.1-6,48.7-5.51,65.93.4,13.94-.75,31.88,9.67,43.21,10.73,11.67,27.15,12.11,42.62,13.03,26.24-1.11,54.12,1.76,80.13-.81,17.19-1.7,34.12-9,35.97-26.62.2-1.95-.15-4.13,0-6.11Z"/>
    <path class="cls-3" d="M389.96,189.98c6.91-.57,21.48-.92,28.12-.02,8.62,1.17,12.22,7.6,12.7,15.65.56,9.4.6,22.97-.02,32.35-.56,8.44-4.81,14.68-13.76,15.39-10.24.81-30.38.96-39.48-3.27-30.69-14.26-21.25-57.34,12.44-60.11Z"/>
    <path class="cls-6" d="M382.78,211.59c14.4-2.43,16.49,17.9,4.42,19.94-14.38,2.43-16.4-17.92-4.42-19.94Z"/>
    <g class="cls-8">
      <g>
        <path class="cls-5" d="M230.7,14.6v30.36c0,8.05,4.17,13.23,13.23,13.23h30.36v172.57c0,1.7-3.26,5.89-5.28,6.14l-163.16.37c-4.01,0-7.16-1.96-7.16-7.63l-.1-209.36c.25-1.98,4.01-5.69,5.72-5.69h126.38ZM126.75,56.75c-4.18,1.58-2.84,6.88,1.43,7.17h66.46c5.2-.6,4.76-6.76.53-7.3l-68.42.14ZM126.22,74.39c-3.67,2.91-1.95,6.66,2.5,7.17,11.27,1.27,24.81-.95,36.33,0,4.54,0,6.53-5.36,2.06-7.25l-40.89.09ZM244.08,201.84l.66-2.71-.03-81.5c-.22-1.37-1.61-2.11-2.87-2.32-1.96-.32-11.05-.37-12.93-.02-1.3.24-2.38,1.5-2.38,2.81l.04,82.54c.07.53.29,1.03.71,1.36,1.06.83,15.84.78,16.8-.17ZM162.02,148.59c-.53.18-.78.6-1,1.08l-.27,50.89c.44.92,1.21,1.72,2.24,1.91,1.48.28,13.21.26,14.41-.09.5-.15.88-.49,1.14-.93l.15-51.54c-.14-.46-.5-.93-.93-1.14-.78-.38-14.72-.52-15.75-.17ZM145.46,201.84l.54-35.33c-.31-1.04-1.77-1.72-2.78-1.89-1.91-.31-11.58-.3-13.23.2-1.13.34-2.15,1.33-2.08,2.59.7,10.27-.85,21.56,0,31.71.09,1.05.03,2.52,1.18,3.01,1.58.67,15.42.65,16.37-.3Z"/>
        <path class="cls-6" d="M273.26,50.93h-28.81c-5.12,0-6.49-1.27-6.49-6.49V15.64c1.28.1,2.45,1.27,3.39,2.06,8.14,6.82,23.03,21.71,29.84,29.84.79.94,1.96,2.11,2.06,3.39Z"/>
        <path class="cls-1" d="M219.28,92.45c-1.87,7.83,7.64,10.11,7.29,1.28-.15-3.79-.43-9.84-1.09-13.45-.45-2.47-2.27-3.38-4.67-3.17-1.75.15-14.36,3.44-15.52,4.21-2.97,1.98-1.71,6.55,2.31,6.5,2.05-.03,3.98-1.42,5.97-.82-19.2,27.45-51.27,43.29-84.05,47.8-3.45,1.2-3.11,7.18,2.28,6.97,16.23-.62,43.31-11.99,56.93-20.96,13.18-8.69,18.9-16.29,29.09-27.48.46-.51.47-1.11,1.46-.87Z"/>
      </g>
    </g>
    <path class="cls-7" d="M320.59,211.1v-16.96c-4.91,2.87-9.94,5.58-14.74,8.61v16.96l14.74-8.61Z"/>
    <path class="cls-7" d="M305.89,187.17l12.16,7.06-12.04,6.97-12.12-6.98,11.92-7.02.09-.03M306.05,185.72l-.79.26-14.02,8.26,14.78,8.51,14.7-8.51-14.67-8.52h0Z"/>
    <path class="cls-7" d="M292.76,194.89l11.91,7.05v15.43l-12.07-7.05-.03-15.32.19-.11M292.77,193.34l-1.54.9.04,16.86,14.74,8.61v-18.53l-13.24-7.84h0Z"/>
    <path class="cls-7" d="M340.32,244.49v-16.96c-4.91,2.87-9.94,5.58-14.74,8.61v16.96l14.74-8.61Z"/>
    <path class="cls-7" d="M325.62,220.57l12.16,7.06-12.04,6.97-12.12-6.98,11.92-7.02.09-.03M325.77,219.12l-.79.26-14.02,8.26,14.78,8.51,14.7-8.51-14.67-8.52h0Z"/>
    <path class="cls-7" d="M312.49,228.29l11.91,7.05v15.43l-12.07-7.05-.03-15.32.19-.11M312.5,226.74l-1.54.9.04,16.86,14.74,8.61v-18.53l-13.24-7.84h0Z"/>
    <path class="cls-7" d="M301.3,244.49v-16.96c-4.91,2.87-9.94,5.58-14.74,8.61v16.96l14.74-8.61Z"/>
    <path class="cls-7" d="M286.6,220.57l12.16,7.06-12.04,6.97-12.12-6.98,11.92-7.02.09-.03M286.75,219.12l-.79.26-14.02,8.26,14.78,8.51,14.7-8.51-14.67-8.52h0Z"/>
    <path class="cls-7" d="M273.47,228.29l11.91,7.05v15.43l-12.07-7.05-.03-15.32.19-.11M273.47,226.74l-1.54.9.04,16.86,14.74,8.61v-18.53l-13.24-7.84h0Z"/>
  </g>
  <path class="cls-6" d="M195.26,132c-.5.15-.88.49-1.14.93l.21,68.82c.35.45.82.61,1.36.71,1.71.33,12.28.33,13.99,0,1.56-.3,2.27-1.91,2.36-3.35l-.12-64.78c-.37-1.16-.95-2.19-2.24-2.44-1.44-.28-13.24-.25-14.42.09Z"/>
  <path class="cls-5" d="M88.35,27.57v201.92c0,9.92,8.05,17.97,17.97,17.97h118.13"/>
</svg>