<svg version="1.2" xmlns="http://www.w3.org/2000/svg" viewBox="0 0 15 15" width="15" height="15">
	<title>Siblogo-02-svg</title>
	<style>
		.s0 { fill: #3cb65f } 
	</style>
	<path fill-rule="evenodd" class="s0" d="m12.2 8c-0.2 1 0.5 2.1 1.5 2.3l0.8 0.2-0.3 0.7c-0.9 2.4-2.5 3.7-4.5 3.7q-0.5 0.1-0.8-0.2c-0.8-0.5-1.8-0.5-2.6 0q-0.4 0.2-0.8 0.2c-3.2 0-5.2-3.6-5.2-7 0-3.2 1.7-4.8 5.2-4.8q0.4 0 0.9 0.4c0.7 0.4 1.6 0.4 2.3 0q0.5-0.4 0.9-0.4c2.5 0 4 0.8 4.7 2.4l0.4 0.8-0.9 0.1c-0.8 0.2-1.4 0.8-1.6 1.6zm0.5 3.3c-0.7-0.3-1.2-0.8-1.5-1.5-0.8-1.7-0.1-3.6 1.5-4.4-0.4-0.5-1.3-0.9-3-0.9-0.1 0-0.1 0-0.2 0-1.2 0.8-2.7 0.8-3.8 0q-0.2-0.1-0.2 0c-2.7 0-3.8 0.9-3.8 3.4 0 2.4 1.1 5.7 3.8 5.7q0 0 0 0c1.3-0.8 2.9-0.8 4.1 0q0 0 0.1 0c1.6 0 2.5-1.2 3-2.3z"/>
	<path class="s0" d="m7.4 3.1l2.6-3 0.7 1.1-3.3 1.8v0.1q0 0 0 0z"/>
	<path class="s0" d="m7.5 2.9l0.8-2.7 0.8 0.6z"/>
</svg>