<?xml version="1.0" encoding="UTF-8"?>
<svg id="Layer_1" data-name="Layer 1" xmlns="http://www.w3.org/2000/svg" viewBox="0 0 80 80">
  <defs>
    <style>
      .cls-1 {
        fill: #36f;
      }

      .cls-2 {
        fill: #fd9200;
      }
    </style>
  </defs>
  <path class="cls-2" d="M39.71,27.65c7.56-.1,13.31,6.25,12.36,13.79s-9.19,12.63-16.48,9.69c-8.02-3.23-10.34-13.44-4.32-19.75,2.15-2.25,5.31-3.69,8.44-3.73Z"/>
  <path class="cls-1" d="M40,7.64c2.94,0,5.33,2.38,5.33,5.33v1.35c2.05.45,4.12,1.11,6.01,2.01,1.05.5,2.02,1.13,3.01,1.74.01,0,.02.02.03.03l.97-.97c1.04-1.04,2.4-1.56,3.77-1.56,1.36,0,2.73.52,3.77,1.56h0c2.08,2.08,2.08,5.45,0,7.53l-.94.94s.09.09.13.15c.43.67.9,1.5,1.28,2.21,1.14,2.11,1.84,4.41,2.42,6.73h1.26c2.94,0,5.33,2.38,5.33,5.33h0c0,2.94-2.38,5.33-5.33,5.33h-1.21c-.78,3.25-1.94,6.38-3.81,9.16l.87.87c2.08,2.08,2.08,5.45,0,7.53-1.04,1.04-2.4,1.56-3.77,1.56s-2.73-.52-3.77-1.56l-.85-.85c-2.32,1.62-5.04,2.8-7.77,3.56-.44.12-.97.19-1.41.34v1.11c0,2.94-2.38,5.33-5.33,5.33s-5.33-2.38-5.33-5.33v-1.11c-.43-.14-.97-.21-1.41-.34-2.73-.76-5.45-1.93-7.77-3.56l-.85.85c-1.04,1.04-2.4,1.56-3.77,1.56s-2.73-.52-3.77-1.56h0c-2.08-2.08-2.08-5.45,0-7.53l.87-.87c-1.86-2.78-3.03-5.91-3.81-9.16h-1.21c-2.94,0-5.33-2.38-5.33-5.33h0c0-2.94,2.38-5.33,5.33-5.33h1.26c.59-2.32,1.29-4.61,2.42-6.73.38-.71.85-1.54,1.28-2.21.04-.06.08-.1.13-.15l-.94-.94c-2.08-2.08-2.08-5.45,0-7.53h0c1.04-1.04,2.4-1.56,3.77-1.56,1.36,0,2.73.52,3.77,1.56l.97.97s.02-.02.03-.03c.99-.6,1.96-1.24,3.01-1.74,1.89-.9,3.96-1.56,6.01-2.01v-1.35c0-2.94,2.38-5.33,5.33-5.33M39.99,59.41s0,0,.01,0c0,0,0,0,.01,0,10.86,0,20.1-9.09,19.5-20.73-.49-9.52-8.17-17.62-17.72-18.33-.61-.05-1.21-.07-1.79-.07-.59,0-1.18.03-1.79.07-9.55.71-17.22,8.81-17.72,18.33-.6,11.64,8.64,20.73,19.5,20.73M40,6.14c-3.76,0-6.83,3.06-6.83,6.83v.17c-1.87.48-3.6,1.1-5.16,1.84-.77.37-1.49.79-2.18,1.22l-.13-.13c-1.29-1.29-3-2-4.83-2s-3.54.71-4.83,2c-1.29,1.29-2,3-2,4.83,0,1.82.71,3.54,2,4.83l.08.08c-.25.43-.52.91-.81,1.45-1.06,1.96-1.74,4.04-2.26,5.94h-.11c-3.76,0-6.83,3.06-6.83,6.83s3.06,6.83,6.83,6.83h.05c.77,2.85,1.78,5.31,3.06,7.45l-.02.02c-2.66,2.66-2.66,6.99,0,9.65,1.29,1.29,3,2,4.83,2s3.52-.7,4.81-1.98c2.1,1.3,4.56,2.35,7.18,3.08.1.03.2.05.31.08.04,3.73,3.09,6.74,6.82,6.74s6.78-3.02,6.82-6.74c.11-.02.21-.05.31-.08,2.62-.73,5.07-1.78,7.18-3.08,1.29,1.28,2.99,1.98,4.81,1.98s3.54-.71,4.83-2c2.66-2.66,2.66-6.99,0-9.65l-.02-.02c1.28-2.14,2.29-4.6,3.06-7.45h.05c3.76,0,6.83-3.06,6.83-6.83s-3.06-6.83-6.83-6.83h-.11c-.52-1.89-1.2-3.97-2.26-5.94-.29-.53-.56-1.02-.81-1.45l.08-.08c2.66-2.66,2.66-6.99,0-9.65-1.29-1.29-3-2-4.83-2-1.82,0-3.54.71-4.83,2l-.13.13c-.69-.42-1.41-.85-2.18-1.22-1.55-.74-3.28-1.36-5.16-1.84v-.17c0-3.76-3.06-6.83-6.83-6.83h0ZM39.99,57.91c-4.9,0-9.66-2.06-13.06-5.64-3.45-3.63-5.2-8.43-4.94-13.51.46-8.84,7.63-16.27,16.33-16.92.58-.04,1.15-.07,1.69-.07.52,0,1.09.03,1.67.07,8.7.65,15.87,8.08,16.33,16.92.26,5.08-1.49,9.88-4.94,13.51-3.4,3.58-8.16,5.64-13.06,5.64h-.02Z"/>
</svg>