<?xml version="1.0" encoding="UTF-8"?>
<svg id="Layer_1" data-name="Layer 1" xmlns="http://www.w3.org/2000/svg" viewBox="0 0 80 80">
  <defs>
    <style>
      .cls-1 {
        fill: #36f;
      }

      .cls-2 {
        fill: #fd9200;
      }
    </style>
  </defs>
  <path class="cls-1" d="M40,7.24c10.54,0,19.11,8.58,19.11,19.11v3.89c4.81,2.11,8.19,6.91,8.19,12.49v16.38c0,7.53-6.12,13.65-13.65,13.65h-27.3c-7.53,0-13.65-6.12-13.65-13.65v-16.38c0-5.58,3.38-10.38,8.19-12.49v-3.89c0-10.54,8.58-19.11,19.11-19.11M26.35,29.08h27.3v-2.73c0-7.53-6.12-13.65-13.65-13.65s-13.65,6.12-13.65,13.65v2.73M26.35,67.3h27.3c4.52,0,8.19-3.67,8.19-8.19v-16.38c0-4.52-3.67-8.19-8.19-8.19h-27.3c-4.52,0-8.19,3.67-8.19,8.19v16.38c0,4.52,3.67,8.19,8.19,8.19M40,5.74c-11.36,0-20.61,9.25-20.61,20.61v2.94c-5.01,2.6-8.19,7.77-8.19,13.44v16.38c0,8.35,6.8,15.15,15.15,15.15h27.3c8.35,0,15.15-6.8,15.15-15.15v-16.38c0-5.67-3.18-10.84-8.19-13.44v-2.94c0-11.36-9.25-20.61-20.61-20.61h0ZM27.85,27.58v-1.23c0-6.7,5.45-12.15,12.15-12.15s12.15,5.45,12.15,12.15v1.23h-24.3ZM26.35,65.8c-3.69,0-6.69-3-6.69-6.69v-16.38c0-3.69,3-6.69,6.69-6.69h27.3c3.69,0,6.69,3,6.69,6.69v16.38c0,3.69-3,6.69-6.69,6.69h-27.3Z"/>
  <g>
    <path class="cls-2" d="M38.74,59.6c-.64-.07-1.25-.22-1.85-.45s-1.12-.56-1.58-1c-.46-.43-.83-.98-1.11-1.64-.28-.66-.41-1.45-.41-2.37h3.33c0,.55.07,1,.21,1.37.14.36.33.66.57.88.24.22.51.37.81.46.3.09.61.13.93.13.36,0,.68-.05.95-.15.27-.1.5-.24.69-.41.18-.18.32-.39.41-.63.09-.24.14-.5.14-.79,0-.32-.04-.61-.13-.85s-.22-.47-.41-.67c-.19-.2-.44-.38-.74-.55-.3-.17-.67-.33-1.11-.5-.75-.28-1.44-.58-2.05-.89-.61-.31-1.14-.67-1.58-1.08s-.78-.88-1.02-1.43c-.24-.55-.36-1.19-.36-1.95,0-.65.11-1.25.32-1.79s.52-1.01.92-1.41.88-.72,1.43-.97c.56-.25,1.18-.41,1.87-.48v-1.93h-9.47c-2.27,0-4.12,1.85-4.12,4.12v12.6c0,2.27,1.85,4.12,4.12,4.12h9.24v-1.74Z"/>
    <path class="cls-2" d="M50.5,40.5h-9.68v1.96c.66.09,1.26.28,1.8.56s.99.65,1.37,1.11c.38.45.67.99.87,1.61.2.62.31,1.31.31,2.08h-3.33c0-.92-.19-1.61-.57-2.07-.38-.46-.89-.69-1.53-.69-.35,0-.64.05-.89.16-.25.1-.46.25-.62.43-.16.18-.28.39-.36.64-.08.25-.12.51-.12.8s.04.54.12.77c.08.23.21.44.4.64.19.2.44.38.75.55s.7.35,1.16.54c.75.3,1.42.61,2.03.92.61.31,1.13.68,1.57,1.09.44.41.78.89,1.02,1.43s.36,1.19.36,1.94c0,.68-.11,1.28-.33,1.82-.22.54-.53,1-.93,1.39-.4.39-.88.71-1.45.94-.56.24-1.19.39-1.88.46v1.76h9.93c2.27,0,4.12-1.85,4.12-4.12v-12.6c0-2.27-1.85-4.12-4.12-4.12Z"/>
  </g>
</svg>