<?xml version="1.0" encoding="UTF-8"?>
<svg id="Layer_1" data-name="Layer 1" xmlns="http://www.w3.org/2000/svg" viewBox="0 0 80 80">
  <defs>
    <style>
      .cls-1 {
        fill: #36f;
      }

      .cls-2 {
        fill: #fd9200;
      }
    </style>
  </defs>
  <path class="cls-1" d="M41.33,8.94c1.43,0,2.59,1.16,2.59,2.59s-1.16,2.59-2.59,2.59h-18.12c-4.28,0-7.77,3.48-7.77,7.77v28.48h31.06c0-1.43,1.16-2.59,2.59-2.59s2.59,1.16,2.59,2.59v7.77c0,7.14-5.81,12.94-12.94,12.94h-15.53c-7.14,0-12.94-5.81-12.94-12.94V21.88c0-7.14,5.81-12.94,12.94-12.94h18.12M23.21,65.89h15.53c4.28,0,7.77-3.48,7.77-7.77v-2.59H15.44v2.59c0,4.28,3.48,7.77,7.77,7.77M41.33,7.44h-18.12c-7.96,0-14.44,6.48-14.44,14.44v36.24c0,7.96,6.48,14.44,14.44,14.44h15.53c7.96,0,14.44-6.48,14.44-14.44v-7.77c0-2.25-1.83-4.09-4.09-4.09-1.73,0-3.2,1.07-3.8,2.59h-28.35v-26.98c0-3.46,2.81-6.27,6.27-6.27h18.12c2.25,0,4.09-1.83,4.09-4.09s-1.83-4.09-4.09-4.09h0ZM16.94,57.03h28.06v1.09c0,3.46-2.81,6.27-6.27,6.27h-15.53c-3.46,0-6.27-2.81-6.27-6.27v-1.09h0Z"/>
  <path class="cls-2" d="M62.81,20.55h-30.02c-3.83,0-6.93,3.1-6.93,6.93v6.93c0,3.83,3.1,6.93,6.93,6.93h30.02c3.83,0,6.93-3.1,6.93-6.93v-6.93c0-3.83-3.1-6.93-6.93-6.93ZM39.42,32.63h0c.72.72.72,1.89,0,2.61-.36.36-.83.54-1.3.54s-.94-.18-1.3-.54l-1.69-1.69-1.69,1.69c-.36.36-.83.54-1.3.54s-.94-.18-1.3-.54c-.72-.72-.72-1.89,0-2.61l1.69-1.69-1.69-1.69c-.72-.72-.72-1.89,0-2.61.72-.72,1.89-.72,2.61,0l1.69,1.69,1.69-1.69c.72-.72,1.89-.72,2.61,0,.72.72.72,1.89,0,2.61l-1.69,1.69,1.69,1.69ZM52.11,32.63h0c.72.72.72,1.89,0,2.61-.36.36-.83.54-1.3.54s-.94-.18-1.3-.54l-1.69-1.69-1.69,1.69c-.36.36-.83.54-1.3.54s-.94-.18-1.3-.54c-.72-.72-.72-1.89,0-2.61l1.69-1.69-1.69-1.69c-.72-.72-.72-1.89,0-2.61.72-.72,1.89-.72,2.61,0l1.69,1.69,1.69-1.69c.72-.72,1.89-.72,2.61,0,.72.72.72,1.89,0,2.61l-1.69,1.69,1.69,1.69ZM64.88,32.63h0c.72.72.72,1.89,0,2.61-.36.36-.83.54-1.3.54s-.94-.18-1.3-.54l-1.7-1.7-1.7,1.7c-.36.36-.83.54-1.3.54s-.94-.18-1.3-.54c-.72-.72-.72-1.89,0-2.61l1.69-1.69-1.69-1.69c-.72-.72-.72-1.89,0-2.61.72-.72,1.89-.72,2.61,0l1.7,1.7,1.7-1.7c.72-.72,1.89-.72,2.61,0,.72.72.72,1.89,0,2.61l-1.69,1.69,1.69,1.69Z"/>
  <path class="cls-1" d="M30.31,60.26c.25,0,.45.2.45.45s-.2.45-.45.45h-.68c-.25,0-.45-.2-.45-.45s.2-.45.45-.45h.68M30.31,58.76h-.68c-1.08,0-1.95.88-1.95,1.95s.88,1.95,1.95,1.95h.68c1.08,0,1.95-.88,1.95-1.95s-.88-1.95-1.95-1.95h0Z"/>
</svg>