<?xml version="1.0" encoding="UTF-8"?>
<svg id="Layer_1" data-name="Layer 1" xmlns="http://www.w3.org/2000/svg" xmlns:xlink="http://www.w3.org/1999/xlink" viewBox="0 0 500 300">
  <defs>
    <style>
      .cls-1 {
        stroke-width: 1.4px;
      }

      .cls-1, .cls-2, .cls-3, .cls-4, .cls-5, .cls-6, .cls-7 {
        fill: none;
        stroke: #36f;
        stroke-miterlimit: 10;
      }

      .cls-2 {
        stroke-width: 1.52px;
      }

      .cls-3 {
        stroke-width: 5.6px;
      }

      .cls-8 {
        fill: #fff;
      }

      .cls-4 {
        stroke-width: 1.65px;
      }

      .cls-9 {
        filter: url(#drop-shadow-1);
      }

      .cls-5 {
        stroke-width: 1.27px;
      }

      .cls-10 {
        fill: #203f9e;
      }

      .cls-6 {
        stroke-width: 4.2px;
      }

      .cls-11 {
        fill: #36f;
      }

      .cls-12 {
        fill: #fd9200;
      }

      .cls-7 {
        stroke-width: 2.8px;
      }
    </style>
    <filter id="drop-shadow-1" x="191.6" y="154.52" width="84.25" height="62.83" filterUnits="userSpaceOnUse">
      <feOffset dx="1.58" dy="3.15"/>
      <feGaussianBlur result="blur" stdDeviation="3.15"/>
      <feFlood flood-color="#000" flood-opacity=".2"/>
      <feComposite in2="blur" operator="in"/>
      <feComposite in="SourceGraphic"/>
    </filter>
  </defs>
  <path class="cls-3" d="M230.66,112.54c65-6.15,106.12,66.73,66.04,118.62-32.95,42.66-99.83,35.66-123.91-12.28-22.75-45.3,7.28-101.56,57.86-106.34Z"/>
  <g>
    <g class="cls-9">
      <path class="cls-11" d="M275.85,158.79v.66c-.49.79-1.06,1.21-1.86,1.67-5.92,3.37-22.2,3.51-28.02-.06-3.07-1.88-1.44-3.3,1.08-4.42,6.22-2.76,18.39-2.7,24.78-.47,1.49.52,3.16,1.25,4.01,2.63Z"/>
      <path class="cls-11" d="M275.85,171.08v5.57c-.8,1.46-2.55,2.2-4.06,2.74-6.3,2.24-17.21,2.23-23.51,0-.81-.28-4.05-1.75-4.05-2.66v-5.65c.93.41,1.79.9,2.75,1.27,6.86,2.66,18.48,2.65,25.43.28,1.22-.42,2.29-1,3.45-1.55Z"/>
      <path class="cls-11" d="M275.85,196.97v5.74c-.85,1.2-2.05,1.88-3.4,2.42-6.27,2.51-18.7,2.52-24.95-.05-.77-.32-3.28-1.56-3.28-2.46v-5.65c.87.4,1.68.91,2.58,1.27,6.9,2.81,19.19,2.79,26.14.16,1.01-.38,1.96-.92,2.91-1.44Z"/>
      <path class="cls-11" d="M275.85,162.4v5.74c-1.18,1.63-3.17,2.36-5.04,2.9-6.27,1.82-15.93,1.81-22.16-.2-.89-.29-4.43-1.74-4.43-2.78v-5.65c.7.27,1.33.71,2.02,1.01,6.95,2.98,19.46,3.01,26.53.42,1.07-.39,2.05-.95,3.07-1.43Z"/>
      <path class="cls-11" d="M275.85,188.29v5.74c-.47.86-1.18,1.36-2.02,1.83-6.02,3.32-21.25,3.23-27.37.12-.58-.29-2.23-1.36-2.23-2.03v-5.65c2.07,1.27,4.47,2.08,6.85,2.57,5.68,1.17,12.39,1.17,18.06-.03,2.34-.49,4.68-1.28,6.71-2.55Z"/>
      <path class="cls-11" d="M275.85,179.6v5.74c-.44.76-.85,1.14-1.59,1.61-5.84,3.67-22.15,3.55-28.12.16-.51-.29-1.92-1.25-1.92-1.85v-5.65c2.9,1.83,6.39,2.65,9.77,3.09,4.6.6,9.78.5,14.35-.36,2.6-.49,5.31-1.26,7.51-2.73Z"/>
      <path class="cls-11" d="M275.85,205.66v6.23c-1.8,1.62-4.36,2.24-6.69,2.73-6.32,1.34-14.36,1.55-20.55-.49-.9-.29-4.39-1.76-4.39-2.82v-5.65c5.57,3.08,12.64,3.6,18.93,3.29,4.23-.21,9.01-1.17,12.69-3.29Z"/>
      <path class="cls-11" d="M224.04,171.79c4.43-.23,13.34.23,16.97,2.93,2.37,1.76.75,2.97-1.25,3.94-6.26,3-20.77,3.05-26.94-.16-5.19-2.7.66-4.85,3.49-5.59,2.5-.66,5.16-.98,7.74-1.11Z"/>
      <path class="cls-11" d="M242.26,179.6v5.82c0,.93-3.26,2.38-4.06,2.66-4.77,1.65-10.07,1.64-15.03,1.52-.38-.07-1.41-1.59-1.8-1.97-2.76-2.74-6.58-4.66-10.46-5.11l-.28-.22v-2.7c2.12,1.04,4.1,1.83,6.42,2.35,7.99,1.77,17.83,1.35,25.21-2.35Z"/>
      <path class="cls-11" d="M242.26,211.31c-.21.98-2.09,1.91-2.96,2.29-4.75,2.07-13.86,2.61-18.91,1.55-.2-.04-.39-.08-.42-.31,1.42-.9,2.66-2.44,3.64-3.82.32-.44,1.01-1.94,1.39-2.05,5.87.05,12.06-.37,17.26-3.31-.24,1.6.32,4.19,0,5.65Z"/>
      <path class="cls-11" d="M242.26,193.94c-.31,1.57-3.99,2.76-5.37,3.15-3.33.93-6.91,1.25-10.36,1.19-.14-2.28-1-4.6-2.13-6.55,6.02,0,12.58-.32,17.86-3.44-.23,1.64.31,4.13,0,5.65Z"/>
      <path class="cls-11" d="M242.26,202.63c-.3,1.49-4.03,2.78-5.37,3.15-3.59.99-7.47,1.3-11.18,1.11.7-2.08,1.09-4.27.98-6.47,5.31-.29,10.91-.67,15.57-3.44-.23,1.64.31,4.13,0,5.65Z"/>
      <path class="cls-12" d="M206.79,184.06c11.7-1.07,20.75,9.85,17.66,21.17-3.55,13.04-20.58,16.39-29.13,5.94-8.42-10.29-1.65-25.92,11.47-27.11Z"/>
    </g>
    <path class="cls-8" d="M206.62,210.22v1.59h2.2v-1.6c.83-.08,1.59-.25,2.27-.52.68-.27,1.26-.62,1.74-1.06.48-.44.85-.96,1.12-1.56s.39-1.28.39-2.04c0-.84-.15-1.56-.44-2.17-.29-.61-.7-1.15-1.23-1.61-.53-.46-1.16-.87-1.89-1.22-.73-.35-1.55-.7-2.45-1.03-.55-.21-1.02-.41-1.39-.6-.37-.19-.67-.4-.9-.62s-.39-.46-.48-.72c-.09-.26-.14-.55-.14-.87s.05-.62.14-.89.24-.52.43-.72c.19-.2.44-.36.74-.48s.66-.17,1.07-.17c.77,0,1.38.26,1.84.77.46.51.69,1.29.69,2.32h4c0-.86-.12-1.64-.37-2.33-.24-.69-.59-1.3-1.05-1.8-.45-.51-1-.92-1.65-1.24-.65-.32-1.37-.53-2.16-.63v-1.46h-2.22v1.42c-.83.08-1.58.26-2.25.54-.67.28-1.24.64-1.72,1.09-.48.45-.85.97-1.11,1.58-.26.6-.39,1.27-.39,2,0,.84.15,1.57.44,2.19.29.61.7,1.15,1.23,1.6.53.46,1.16.86,1.9,1.21s1.56.68,2.47,1c.53.18.97.37,1.34.56.36.19.66.4.89.62.23.22.4.47.5.75s.15.59.15.96c0,.32-.06.61-.17.89s-.28.51-.5.7c-.22.2-.5.35-.82.47-.33.11-.71.17-1.14.17-.38,0-.75-.05-1.12-.15s-.69-.27-.98-.52c-.29-.25-.51-.57-.69-.98-.17-.41-.26-.92-.26-1.53h-4c0,1.03.17,1.92.5,2.66.33.74.78,1.36,1.33,1.84.55.49,1.19.86,1.91,1.12.72.26,1.46.43,2.22.5Z"/>
  </g>
  <path class="cls-11" d="M447.89,205.03c-.29-9.7-7.56-18.63-16.89-21.04l-.34-.06c4.99-2.15,8.48-7.11,8.48-12.88,0-6.81-4.86-12.49-11.31-13.75-.88-.18-1.77-.27-2.65-.26-.02,0-.04,0-.06,0-.02,0-.03,0-.05,0-.06,0-.12,0-.19,0-7.63.13-13.78,6.35-13.78,14.01,0,5.77,3.49,10.72,8.47,12.87-8.1,2-14.81,8.72-16.63,16.97-.62,2.81-1.64,7.74,2.41,8.14h39.38c2.34-.21,3.23-1.79,3.16-4Z"/>
  <path class="cls-1" d="M368.92,79.02c-.23-7.45-5.8-14.3-12.97-16.15l-.26-.05c3.83-1.65,6.51-5.45,6.51-9.89,0-5.23-3.73-9.59-8.68-10.56-.67-.14-1.36-.2-2.04-.2-.02,0-.03,0-.05,0-.01,0-.03,0-.04,0-.05,0-.09,0-.14,0-5.86.1-10.58,4.87-10.58,10.76,0,4.43,2.68,8.23,6.5,9.88-6.22,1.53-11.37,6.69-12.76,13.03-.47,2.15-1.26,5.94,1.85,6.25h30.23c1.79-.16,2.48-1.38,2.43-3.07Z"/>
  <path class="cls-1" d="M78.55,164.12c-.2-6.6-5.14-12.66-11.48-14.3l-.23-.04c3.39-1.46,5.76-4.83,5.76-8.76,0-4.63-3.31-8.49-7.69-9.35-.6-.12-1.2-.18-1.8-.18-.01,0-.03,0-.04,0-.01,0-.02,0-.04,0-.04,0-.08,0-.13,0-5.19.09-9.37,4.32-9.37,9.52,0,3.92,2.37,7.29,5.75,8.75-5.51,1.36-10.07,5.93-11.3,11.54-.42,1.91-1.12,5.26,1.63,5.53h26.77c1.59-.14,2.19-1.22,2.15-2.72Z"/>
  <path class="cls-1" d="M121.78,272.18c-.17-5.58-4.34-10.71-9.71-12.09l-.19-.04c2.87-1.23,4.87-4.08,4.87-7.4,0-3.92-2.8-7.18-6.5-7.91-.51-.1-1.02-.15-1.52-.15-.01,0-.02,0-.03,0-.01,0-.02,0-.03,0-.04,0-.07,0-.11,0-4.39.07-7.92,3.65-7.92,8.05,0,3.32,2,6.16,4.87,7.4-4.66,1.15-8.51,5.01-9.56,9.75-.36,1.61-.94,4.45,1.38,4.68h22.64c1.34-.12,1.86-1.03,1.82-2.3Z"/>
  <path class="cls-11" d="M184.4,73.17c-.27-8.95-6.97-17.18-15.58-19.41l-.31-.06c4.6-1.98,7.82-6.55,7.82-11.88,0-6.28-4.49-11.52-10.43-12.68-.81-.17-1.63-.25-2.45-.24-.02,0-.04,0-.05,0-.02,0-.03,0-.05,0-.06,0-.11,0-.17,0-7.04.12-12.71,5.86-12.71,12.92,0,5.32,3.22,9.89,7.81,11.87-7.47,1.84-13.66,8.04-15.34,15.65-.57,2.59-1.52,7.14,2.22,7.5h36.32c2.16-.19,2.98-1.65,2.92-3.69Z"/>
  <path class="cls-10" d="M436.73,88.94h7.54c2.36,0,4.27,1.91,4.27,4.27h0c0,2.36-1.91,4.27-4.27,4.27h-7.54v8.85c0,2.48-2.01,4.5-4.5,4.5h0c-2.48,0-4.5-2.01-4.5-4.5v-8.85h-7.57c-2.36,0-4.27-1.91-4.27-4.27h0c0-2.36,1.91-4.27,4.27-4.27h7.57v-8.29c0-2.48,2.01-4.5,4.5-4.5h0c2.48,0,4.5,2.01,4.5,4.5v8.29Z"/>
  <path class="cls-10" d="M350.35,242.84h9.19c2.87,0,5.2,2.33,5.2,5.2h0c0,2.87-2.33,5.2-5.2,5.2h-9.19v10.78c0,3.03-2.45,5.48-5.48,5.48h0c-3.03,0-5.48-2.45-5.48-5.48v-10.78h-9.23c-2.87,0-5.2-2.33-5.2-5.2h0c0-2.87,2.33-5.2,5.2-5.2h9.23v-10.1c0-3.03,2.45-5.48,5.48-5.48h0c3.03,0,5.48,2.45,5.48,5.48v10.1Z"/>
  <path class="cls-10" d="M254.84,53.07h6.42c2.01,0,3.64,1.63,3.64,3.64h0c0,2.01-1.63,3.64-3.64,3.64h-6.42v7.54c0,2.12-1.72,3.83-3.83,3.83h0c-2.12,0-3.83-1.72-3.83-3.83v-7.54h-6.45c-2.01,0-3.64-1.63-3.64-3.64h0c0-2.01,1.63-3.64,3.64-3.64h6.45v-7.07c0-2.12,1.72-3.83,3.83-3.83h0c2.12,0,3.83,1.72,3.83,3.83v7.07Z"/>
  <circle class="cls-6" cx="165.08" cy="55.55" r="44.98"/>
  <circle class="cls-6" cx="424.37" cy="185.78" r="44.98"/>
  <circle class="cls-4" cx="351.44" cy="66.33" r="35.38"/>
  <circle class="cls-2" cx="63.13" cy="151.62" r="32.48"/>
  <circle class="cls-5" cx="108.33" cy="262.2" r="27.24"/>
  <line class="cls-6" x1="187.16" y1="94.38" x2="202.44" y2="121.42"/>
  <line class="cls-7" x1="328.77" y1="93.49" x2="289.42" y2="132.47"/>
  <line class="cls-6" x1="379.38" y1="185.78" x2="312.51" y2="185.78"/>
  <line class="cls-7" x1="95.61" y1="157.03" x2="167.26" y2="168.55"/>
  <line class="cls-7" x1="131.43" y1="248.38" x2="175.43" y2="223.69"/>
</svg>